<svg width="14" height="16" viewBox="0 0 14 16" fill="none" xmlns="http://www.w3.org/2000/svg">
<path d="M12.2383 14.4883H1.76172V6.26172H12.2383V14.4883ZM9.98828 0.988281V2.5H4.01172V0.988281H2.5V2.5H1.76172C1.33984 2.5 0.976562 2.65234 0.671875 2.95703C0.390625 3.23828 0.25 3.58984 0.25 4.01172V14.4883C0.25 14.9102 0.390625 15.2734 0.671875 15.5781C0.976562 15.8594 1.33984 16 1.76172 16H12.2383C12.6602 16 13.0117 15.8594 13.293 15.5781C13.5977 15.2734 13.75 14.9102 13.75 14.4883V4.01172C13.75 3.58984 13.5977 3.23828 13.293 2.95703C13.0117 2.65234 12.6602 2.5 12.2383 2.5H11.5V0.988281H9.98828ZM10.7617 9.25H7V13.0117H10.7617V9.25Z" fill="white"/>
</svg>
