<svg width="50" height="50" viewBox="0 0 50 50" fill="none"
                                xmlns="http://www.w3.org/2000/svg">
                                <path opacity="0.7"
                                    d="M13.3333 0L0.833323 12.5H8.34309L20.1107 0H13.3333ZM22.4007 0L10.6348 12.5H16.6667L27.6953 0H22.4007ZM29.917 0L18.89 12.5H38.3333L49.3587 0H29.917ZM50 1.88803L39.1667 14.1667V48.3334L50 33.89V1.88803ZM0 14.1667V50H37.5V14.1667H17.5016V26.6683C17.4999 27.3147 16.7949 27.7131 16.2402 27.3812L12.5 25.1351L8.75975 27.3812C8.2051 27.7131 7.50013 27.3147 7.49836 26.6683V14.1667H0ZM9.16668 14.1667V25.1969L12.0703 23.4505C12.3352 23.2908 12.6664 23.2908 12.9313 23.4505L15.835 25.1969V14.1667H9.16668ZM21.6666 20.8366H33.3365C33.7942 20.8384 34.1648 21.209 34.1666 21.6667V27.4984C34.1666 30.8931 31.6462 33.7057 28.3349 34.1146V38.8819C29.2998 38.9912 30.1796 39.2893 30.8934 39.7461C31.8262 40.3431 32.4983 41.2474 32.4983 42.3356C32.4983 43.4239 31.827 44.3211 30.8934 44.9186C29.9773 45.5049 28.793 45.8366 27.4983 45.8366C26.2036 45.8366 25.0176 45.5049 24.1014 44.9186C23.1854 44.3323 22.5031 43.4304 22.5031 42.3356C22.5031 41.2279 23.1854 40.3324 24.1014 39.7461C24.8172 39.288 25.7001 38.9886 26.6682 38.8802V34.1162C23.3584 33.7062 20.8365 30.8958 20.8365 27.4984V21.6667C20.8361 21.2383 21.1605 20.8794 21.5868 20.8366C21.6121 20.8354 21.6414 20.8354 21.6666 20.8366V20.8366ZM22.5032 22.5033V27.4984C22.5032 30.2828 24.7323 32.4984 27.4984 32.4984C30.2644 32.4984 32.4984 30.2828 32.4984 27.4984V22.5033H30.5078L29.4483 24.6126L30.3776 25.0798C30.8217 25.3072 30.9682 25.8713 30.69 26.2858L29.0299 28.7842C28.4192 29.7332 27.0023 28.7936 27.6399 27.8613L28.789 26.1442L27.9589 25.7194C27.5514 25.5125 27.3863 25.0157 27.5894 24.6061L28.6458 22.5033H22.5032ZM5.59408 36.9107L7.26072 38.5774C8.08309 39.3638 6.86831 40.5803 6.08072 39.759L5.8382 39.5165V44.9999C5.8382 46.1113 4.17156 46.1113 4.17156 44.9999V39.5149L3.92746 39.759C3.13972 40.547 1.95808 39.3654 2.74583 38.5774L4.4125 36.9107C4.5662 36.7563 4.77408 36.6678 4.99191 36.665C5.2177 36.6621 5.4349 36.7507 5.59408 36.9107V36.9107ZM12.2624 36.9107L13.929 38.5774C14.7514 39.3638 13.5366 40.5803 12.749 39.759L12.5049 39.5149V44.9999C12.5049 46.1113 10.8382 46.1113 10.8382 44.9999V39.5165L10.5957 39.7591C9.80797 40.547 8.62633 39.3653 9.41408 38.5774L11.0808 36.9107C11.2345 36.7564 11.4423 36.6679 11.6602 36.665C11.886 36.662 12.1032 36.7507 12.2624 36.9107V36.9107ZM18.9242 36.9107L20.5924 38.5774C21.4123 39.3606 20.205 40.5746 19.4173 39.759L19.1717 39.5134V45C19.1717 46.1114 17.505 46.1114 17.505 45V39.5182L17.264 39.7592C16.4763 40.5471 15.2946 39.3655 16.0824 38.5775L17.749 36.9109C17.9027 36.7565 18.1106 36.668 18.3285 36.6651C18.5521 36.6638 18.7666 36.7523 18.9242 36.9107V36.9107ZM26.6683 40.5697C26.0055 40.6698 25.4224 40.879 25 41.1491C24.4409 41.507 24.1634 41.9511 24.1634 42.3356C24.1634 42.7202 24.4437 43.1613 25 43.5173C25.5919 43.8962 26.4919 44.1683 27.4984 44.1683C28.5049 44.1683 29.4032 43.8962 29.9951 43.5173C30.5709 43.1488 30.8317 42.7202 30.8317 42.3356C30.8317 41.9511 30.5734 41.5192 29.9951 41.1491C29.5745 40.8798 28.9942 40.6718 28.335 40.5713V41.6586C28.3602 42.7946 26.6431 42.7946 26.6683 41.6586V40.5697Z"
                                    fill="#570510" />
                            </svg>