<svg width="47" height="37" viewBox="0 0 47 37" fill="none"
    xmlns="http://www.w3.org/2000/svg">
    <path
        d="M36.1848 13.1429C36.1848 15.5216 35.3805 17.7206 33.7719 19.74C32.1633 21.7593 29.9685 23.3551 27.1876 24.5273C24.4068 25.6996 21.382 26.2857 18.1134 26.2857C16.6417 26.2857 15.1357 26.1488 13.5956 25.875C11.4735 27.381 9.09482 28.4762 6.4594 29.1607C5.84333 29.3147 5.10747 29.4516 4.25181 29.5714H4.1748C3.98656 29.5714 3.81115 29.503 3.64858 29.3661C3.486 29.2292 3.3876 29.0495 3.35338 28.827C3.33626 28.7757 3.32771 28.7201 3.32771 28.6602C3.32771 28.6003 3.33198 28.5446 3.34054 28.4933C3.3491 28.442 3.36621 28.3906 3.39188 28.3393L3.45605 28.2109L3.5459 28.0698L3.64858 27.9414L3.76409 27.8131L3.86677 27.6975C3.95233 27.5949 4.14914 27.381 4.45717 27.0558C4.76521 26.7307 4.98768 26.4782 5.12458 26.2985C5.26149 26.1189 5.45401 25.8707 5.70215 25.5541C5.95029 25.2375 6.1642 24.9081 6.34389 24.5658C6.52358 24.2236 6.69899 23.8471 6.87012 23.4364C4.74809 22.2042 3.07957 20.6897 1.86454 18.8929C0.649507 17.096 0.0419922 15.1793 0.0419922 13.1429C0.0419922 10.7641 0.846308 8.5651 2.45494 6.54576C4.06357 4.52641 6.25832 2.93062 9.0392 1.75837C11.8201 0.586124 14.8448 0 18.1134 0C21.382 0 24.4068 0.586124 27.1876 1.75837C29.9685 2.93062 32.1633 4.52641 33.7719 6.54576C35.3805 8.5651 36.1848 10.7641 36.1848 13.1429ZM46.042 19.7143C46.042 21.7679 45.4345 23.6888 44.2194 25.4771C43.0044 27.2654 41.3359 28.7757 39.2139 30.0078C39.385 30.4185 39.5604 30.795 39.7401 31.1373C39.9198 31.4795 40.1337 31.809 40.3818 32.1256C40.63 32.4422 40.8225 32.6903 40.9594 32.87C41.0963 33.0497 41.3188 33.3021 41.6268 33.6272C41.9348 33.9524 42.1317 34.1663 42.2172 34.269C42.2343 34.2861 42.2686 34.3246 42.3199 34.3845C42.3712 34.4444 42.4097 34.4872 42.4354 34.5128C42.4611 34.5385 42.4953 34.5813 42.5381 34.6412C42.5809 34.7011 42.6108 34.7481 42.6279 34.7824L42.6921 34.9107L42.7434 35.0647L42.7563 35.2316L42.7306 35.3984C42.6793 35.638 42.568 35.8263 42.3969 35.9632C42.2258 36.1001 42.0375 36.16 41.8322 36.1429C40.9765 36.0231 40.2407 35.8862 39.6246 35.7321C36.9892 35.0476 34.6104 33.9524 32.4884 32.4464C30.9482 32.7202 29.4423 32.8571 27.9706 32.8571C23.3329 32.8571 19.2942 31.7277 15.8545 29.4688C16.8471 29.5372 17.6 29.5714 18.1134 29.5714C20.8686 29.5714 23.5126 29.1864 26.0453 28.4163C28.5781 27.6462 30.837 26.5424 32.8221 25.1049C34.9613 23.5305 36.6041 21.7165 37.7507 19.6629C38.8973 17.6094 39.4706 15.436 39.4706 13.1429C39.4706 11.8251 39.2738 10.5246 38.8802 9.24107C41.0878 10.4561 42.8333 11.9792 44.1168 13.8103C45.4003 15.6414 46.042 17.6094 46.042 19.7143Z"
        fill="#42661D" />
</svg>