<svg width="51" height="42" viewBox="0 0 51 42" fill="none"
                                xmlns="http://www.w3.org/2000/svg">
                                <path opacity="0.7" fill-rule="evenodd" clip-rule="evenodd"
                                    d="M25.1626 13.8322C27.9585 13.8322 30.5323 14.783 32.5782 16.3789C31.461 17.7172 30.7883 19.4395 30.7883 21.3188C30.7883 23.0341 31.3487 24.6185 32.2959 25.8997H18.0295C18.9767 24.6185 19.537 23.0342 19.537 21.3188C19.537 19.4395 18.8644 17.7172 17.7471 16.3789C19.7931 14.783 22.3669 13.8322 25.1626 13.8322ZM11.8229 29.0499C17.2432 29.0499 21.8289 32.6235 23.3523 37.5432C23.62 38.4075 23.4744 39.2674 22.9375 39.9958C22.4006 40.7241 21.6222 41.1173 20.7174 41.1173H2.92826C2.02342 41.1173 1.245 40.7241 0.708108 39.9958C0.171215 39.2674 0.0257524 38.4075 0.293392 37.5432C1.81687 32.6236 6.40264 29.0499 11.8229 29.0499ZM38.5025 15.2177C35.1328 15.2177 32.4012 17.9493 32.4012 21.3189C32.4012 24.6886 35.1328 27.4202 38.5025 27.4202C41.8721 27.4202 44.6038 24.6886 44.6038 21.3189C44.6038 17.9493 41.8721 15.2177 38.5025 15.2177ZM11.8229 15.2177C8.45323 15.2177 5.72159 17.9493 5.72159 21.3189C5.72159 24.6886 8.45323 27.4202 11.8229 27.4202C15.1925 27.4202 17.9242 24.6886 17.9242 21.3189C17.9242 17.9493 15.1925 15.2177 11.8229 15.2177ZM38.5024 29.0499C43.9227 29.0499 48.5084 32.6235 50.0318 37.5432C50.2995 38.4075 50.1539 39.2674 49.617 39.9958C49.0801 40.7241 48.3017 41.1173 47.3969 41.1173H29.6079C28.703 41.1173 27.9246 40.7241 27.3877 39.9958C26.8508 39.2674 26.7054 38.4075 26.973 37.5432C28.4965 32.6236 33.0822 29.0499 38.5024 29.0499ZM25.1627 0C28.5324 0 31.264 2.73164 31.264 6.10128C31.264 9.47092 28.5324 12.2026 25.1627 12.2026C21.7931 12.2026 19.0614 9.47092 19.0614 6.10128C19.0614 2.73164 21.7931 0 25.1627 0Z"
                                    fill="#086B4F" />
                            </svg>
