<svg width="41" height="42" viewBox="0 0 41 42" fill="none"
    xmlns="http://www.w3.org/2000/svg">
    <path opacity="0.7"
        d="M3.32566 0C3.03873 0 2.80774 0.232398 2.80774 0.521071V3.46767H5.90258C7.24209 3.46767 8.34299 4.57526 8.34299 5.92293V7.58951C8.34299 8.93718 7.24209 10.0448 5.90258 10.0448H2.80774V17.7532H5.90258C7.24209 17.7532 8.34299 18.8608 8.34299 20.2085V21.8751C8.34299 23.2227 7.24209 24.3303 5.90258 24.3303H2.80774V32.0388H5.90258C7.24209 32.0388 8.34299 33.1464 8.34299 34.494V36.1606C8.34299 37.5083 7.24139 38.6145 5.90258 38.6145H2.80774V41.4789C2.80774 41.7676 3.03873 42 3.32566 42H11.9966V0H3.32566ZM13.4377 0V42H40.4821C40.769 42 41 41.7676 41 41.4789V0.521071C41 0.232398 40.769 0 40.4821 0H13.4377ZM20.7787 4.87229H32.5979C33.9373 4.87229 35.0383 5.98139 35.0383 7.32897V12.643C35.0383 13.9906 33.9373 15.0997 32.5979 15.0997H20.7787C19.4392 15.0997 18.3368 13.9906 18.3368 12.643V7.32897C18.3368 5.98139 19.4392 4.87229 20.7787 4.87229ZM0.999245 4.9176C0.433373 4.9176 0 5.35361 0 5.92293V7.58951C1.36173e-07 8.15882 0.433373 8.59483 0.999245 8.59483H5.90258C6.46845 8.59483 6.90183 8.15882 6.90183 7.58951V5.92293C6.90183 5.35362 6.46845 4.9176 5.90258 4.9176L0.999245 4.9176ZM20.7787 6.32223C20.2127 6.32223 19.778 6.75957 19.778 7.32897V12.643C19.778 13.2124 20.2127 13.6484 20.7787 13.6484H32.5979C33.1639 13.6484 33.5971 13.2124 33.5971 12.643V7.32897C33.5971 6.75957 33.1639 6.32223 32.5979 6.32223H20.7787ZM0.999245 19.2032C0.433373 19.2032 0 19.6392 0 20.2085V21.8751C1.36173e-07 22.4444 0.433373 22.8804 0.999245 22.8804H5.90258C6.46845 22.8804 6.90183 22.4444 6.90183 21.8751V20.2085C6.90183 19.6392 6.46845 19.2032 5.90258 19.2032H0.999245ZM0.999245 33.4887C0.433373 33.4887 0 33.9247 0 34.494V36.1606C1.36173e-07 36.7299 0.432664 37.1645 0.999245 37.1645H5.90258C6.46916 37.1645 6.90183 36.7299 6.90183 36.1606V34.494C6.90183 33.9247 6.46845 33.4887 5.90258 33.4887H0.999245Z"
        fill="#0F435B" />
</svg>
