
<svg width="16" height="16" viewBox="0 0 16 16" fill="none" xmlns="http://www.w3.org/2000/svg">
<path d="M8 0.761719C7.01562 0.761719 6.05469 0.949219 5.11719 1.32422C4.20312 1.69922 3.39453 2.23828 2.69141 2.94141C1.98828 3.64453 1.44922 4.46484 1.07422 5.40234C0.699219 6.31641 0.511719 7.26562 0.511719 8.25C0.511719 9.23438 0.699219 10.1953 1.07422 11.1328C1.44922 12.0469 1.98828 12.8555 2.69141 13.5586C3.39453 14.2617 4.20312 14.8008 5.11719 15.1758C6.05469 15.5508 7.01562 15.7383 8 15.7383C8.98438 15.7383 9.93359 15.5508 10.8477 15.1758C11.7852 14.8008 12.6055 14.2617 13.3086 13.5586C14.0117 12.8555 14.5508 12.0469 14.9258 11.1328C15.3008 10.1953 15.4883 9.23438 15.4883 8.25C15.4883 7.26562 15.3008 6.31641 14.9258 5.40234C14.5508 4.46484 14.0117 3.64453 13.3086 2.94141C12.6055 2.23828 11.7852 1.69922 10.8477 1.32422C9.93359 0.949219 8.98438 0.761719 8 0.761719ZM11.1641 11.4141L7.26172 8.98828V4.48828H8.38672V8.39062L11.7617 10.4297L11.1641 11.4141Z" fill="white"/>
</svg>
