<svg width="452" height="332" viewBox="0 0 452 332" fill="none" xmlns="http://www.w3.org/2000/svg">
<path fill-rule="evenodd" clip-rule="evenodd" d="M1 6C1 3.23857 3.23858 1 6 1H446C448.761 1 451 3.23858 451 6V326C451 328.761 448.761 331 446 331H6.00001C3.23859 331 1 328.761 1 326V6Z" fill="#DDDDDD" stroke="#C2C2C2"/>
<path d="M243.5 138.952C249.455 138.952 254.286 134.121 254.286 128.167C254.286 122.212 249.455 117.381 243.5 117.381C237.545 117.381 232.714 122.212 232.714 128.167C232.714 134.121 237.545 138.952 243.5 138.952Z" fill="#B4B4B4"/>
<path d="M262.375 103H174.292C170.786 103 168 105.854 168 109.359V182.927C168 186.432 170.786 189.286 174.292 189.286H262.375C265.88 189.286 268.667 186.432 268.667 182.927V109.359C268.667 105.854 265.88 103 262.375 103ZM239.208 147.424C238.534 146.637 237.5 146.031 236.332 146.031C235.186 146.031 234.377 146.57 233.456 147.311L229.254 150.862C228.378 151.491 227.681 151.918 226.67 151.918C225.704 151.918 224.827 151.558 224.198 150.996C223.973 150.794 223.569 150.412 223.232 150.075L211.143 136.997C210.244 135.964 208.896 135.312 207.39 135.312C205.885 135.312 204.492 136.054 203.615 137.065L175.19 171.354V112.819C175.415 111.292 176.606 110.19 178.134 110.19H258.51C260.061 110.19 261.319 111.336 261.409 112.887L261.476 171.399L239.208 147.424Z" fill="#B4B4B4"/>
<path d="M118.096 209.146V223.286H114.676V209.146H118.096ZM134.917 212.006C136.291 212.006 137.371 212.432 138.157 213.286C138.944 214.126 139.337 215.299 139.337 216.806V223.286H135.937V217.206C135.937 216.499 135.744 215.952 135.357 215.566C134.984 215.166 134.471 214.966 133.817 214.966C133.137 214.966 132.597 215.179 132.197 215.606C131.811 216.019 131.617 216.606 131.617 217.366V223.286H128.197V217.206C128.197 216.499 128.011 215.952 127.637 215.566C127.264 215.166 126.751 214.966 126.097 214.966C125.417 214.966 124.877 215.172 124.477 215.586C124.077 215.999 123.877 216.592 123.877 217.366V223.286H120.457V212.126H123.877V214.026C124.171 213.399 124.617 212.906 125.217 212.546C125.831 212.186 126.544 212.006 127.357 212.006C128.211 212.006 128.964 212.206 129.617 212.606C130.271 212.992 130.764 213.552 131.097 214.286C131.484 213.592 132.011 213.039 132.677 212.626C133.357 212.212 134.104 212.006 134.917 212.006ZM145.85 211.986C146.703 211.986 147.436 212.179 148.05 212.566C148.663 212.952 149.116 213.479 149.41 214.146V212.126H152.81V223.286H149.41V221.266C149.116 221.932 148.663 222.459 148.05 222.846C147.436 223.232 146.703 223.426 145.85 223.426C144.93 223.426 144.103 223.199 143.37 222.746C142.65 222.279 142.076 221.612 141.65 220.746C141.236 219.879 141.03 218.866 141.03 217.706C141.03 216.532 141.236 215.519 141.65 214.666C142.076 213.799 142.65 213.139 143.37 212.686C144.103 212.219 144.93 211.986 145.85 211.986ZM146.95 214.986C146.216 214.986 145.623 215.226 145.17 215.706C144.73 216.186 144.51 216.852 144.51 217.706C144.51 218.559 144.73 219.226 145.17 219.706C145.623 220.186 146.216 220.426 146.95 220.426C147.67 220.426 148.256 220.179 148.71 219.686C149.176 219.192 149.41 218.532 149.41 217.706C149.41 216.866 149.176 216.206 148.71 215.726C148.256 215.232 147.67 214.986 146.95 214.986ZM159.404 211.986C160.258 211.986 160.991 212.179 161.604 212.566C162.218 212.952 162.671 213.479 162.964 214.146V212.126H166.364V223.226C166.364 224.266 166.164 225.199 165.764 226.026C165.364 226.866 164.751 227.532 163.924 228.026C163.098 228.519 162.071 228.766 160.844 228.766C159.164 228.766 157.818 228.366 156.804 227.566C155.804 226.779 155.204 225.706 155.004 224.346H158.384C158.491 224.799 158.731 225.152 159.104 225.406C159.491 225.659 159.991 225.786 160.604 225.786C161.311 225.786 161.878 225.579 162.304 225.166C162.744 224.766 162.964 224.119 162.964 223.226V221.266C162.671 221.932 162.218 222.459 161.604 222.846C160.991 223.232 160.258 223.426 159.404 223.426C158.484 223.426 157.658 223.199 156.924 222.746C156.204 222.279 155.631 221.612 155.204 220.746C154.791 219.879 154.584 218.866 154.584 217.706C154.584 216.532 154.791 215.519 155.204 214.666C155.631 213.799 156.204 213.139 156.924 212.686C157.658 212.219 158.484 211.986 159.404 211.986ZM160.504 214.986C159.771 214.986 159.178 215.226 158.724 215.706C158.284 216.186 158.064 216.852 158.064 217.706C158.064 218.559 158.284 219.226 158.724 219.706C159.178 220.186 159.771 220.426 160.504 220.426C161.224 220.426 161.811 220.179 162.264 219.686C162.731 219.192 162.964 218.532 162.964 217.706C162.964 216.866 162.731 216.206 162.264 215.726C161.811 215.232 161.224 214.986 160.504 214.986ZM179.319 217.406C179.319 217.686 179.286 217.992 179.219 218.326H171.479C171.519 219.166 171.732 219.772 172.119 220.146C172.506 220.506 172.999 220.686 173.599 220.686C174.106 220.686 174.526 220.559 174.859 220.306C175.192 220.052 175.412 219.726 175.519 219.326H179.139C178.992 220.112 178.672 220.819 178.179 221.446C177.686 222.059 177.059 222.546 176.299 222.906C175.539 223.252 174.692 223.426 173.759 223.426C172.666 223.426 171.692 223.199 170.839 222.746C169.999 222.279 169.339 221.612 168.859 220.746C168.379 219.879 168.139 218.866 168.139 217.706C168.139 216.532 168.372 215.519 168.839 214.666C169.319 213.799 169.986 213.139 170.839 212.686C171.692 212.219 172.666 211.986 173.759 211.986C174.866 211.986 175.839 212.212 176.679 212.666C177.519 213.119 178.166 213.759 178.619 214.586C179.086 215.399 179.319 216.339 179.319 217.406ZM175.859 216.886C175.872 216.152 175.672 215.606 175.259 215.246C174.859 214.872 174.359 214.686 173.759 214.686C173.132 214.686 172.612 214.872 172.199 215.246C171.786 215.619 171.552 216.166 171.499 216.886H175.859ZM197.666 223.286H194.246L188.526 214.606V223.286H185.106V209.146H188.526L194.246 217.906V209.146H197.666V223.286ZM205.248 211.986C206.354 211.986 207.341 212.219 208.208 212.686C209.088 213.139 209.774 213.799 210.268 214.666C210.774 215.532 211.028 216.546 211.028 217.706C211.028 218.866 210.774 219.879 210.268 220.746C209.774 221.612 209.088 222.279 208.208 222.746C207.341 223.199 206.354 223.426 205.248 223.426C204.141 223.426 203.148 223.199 202.268 222.746C201.388 222.279 200.694 221.612 200.188 220.746C199.694 219.879 199.448 218.866 199.448 217.706C199.448 216.546 199.694 215.532 200.188 214.666C200.694 213.799 201.388 213.139 202.268 212.686C203.148 212.219 204.141 211.986 205.248 211.986ZM205.248 214.946C204.594 214.946 204.041 215.186 203.588 215.666C203.148 216.132 202.928 216.812 202.928 217.706C202.928 218.599 203.148 219.279 203.588 219.746C204.041 220.212 204.594 220.446 205.248 220.446C205.901 220.446 206.448 220.212 206.888 219.746C207.328 219.279 207.548 218.599 207.548 217.706C207.548 216.812 207.328 216.132 206.888 215.666C206.448 215.186 205.901 214.946 205.248 214.946ZM219.121 220.346V223.286H217.581C216.274 223.286 215.254 222.966 214.521 222.326C213.801 221.672 213.441 220.599 213.441 219.106V215.006H211.941V212.126H213.441V209.386H216.861V212.126H219.101V215.006H216.861V219.166C216.861 219.606 216.948 219.912 217.121 220.086C217.308 220.259 217.614 220.346 218.041 220.346H219.121ZM233.807 220.706H228.507L227.627 223.286H224.027L229.207 209.246H233.147L238.327 223.286H234.687L233.807 220.706ZM232.927 218.106L231.167 212.906L229.387 218.106H232.927ZM244.817 219.946L247.237 212.126H250.877L246.917 223.286H242.677L238.717 212.126H242.357L244.817 219.946ZM256.533 211.986C257.387 211.986 258.12 212.179 258.733 212.566C259.347 212.952 259.8 213.479 260.093 214.146V212.126H263.493V223.286H260.093V221.266C259.8 221.932 259.347 222.459 258.733 222.846C258.12 223.232 257.387 223.426 256.533 223.426C255.613 223.426 254.787 223.199 254.053 222.746C253.333 222.279 252.76 221.612 252.333 220.746C251.92 219.879 251.713 218.866 251.713 217.706C251.713 216.532 251.92 215.519 252.333 214.666C252.76 213.799 253.333 213.139 254.053 212.686C254.787 212.219 255.613 211.986 256.533 211.986ZM257.633 214.986C256.9 214.986 256.307 215.226 255.853 215.706C255.413 216.186 255.193 216.852 255.193 217.706C255.193 218.559 255.413 219.226 255.853 219.706C256.307 220.186 256.9 220.426 257.633 220.426C258.353 220.426 258.94 220.179 259.393 219.686C259.86 219.192 260.093 218.532 260.093 217.706C260.093 216.866 259.86 216.206 259.393 215.726C258.94 215.232 258.353 214.986 257.633 214.986ZM265.528 208.986C265.528 208.466 265.715 208.039 266.088 207.706C266.461 207.359 266.955 207.186 267.568 207.186C268.181 207.186 268.675 207.359 269.048 207.706C269.421 208.039 269.608 208.466 269.608 208.986C269.608 209.492 269.421 209.919 269.048 210.266C268.675 210.599 268.181 210.766 267.568 210.766C266.955 210.766 266.461 210.599 266.088 210.266C265.715 209.919 265.528 209.492 265.528 208.986ZM269.268 212.126V223.286H265.848V212.126H269.268ZM275.049 208.486V223.286H271.629V208.486H275.049ZM281.65 211.986C282.504 211.986 283.237 212.179 283.85 212.566C284.464 212.952 284.917 213.479 285.21 214.146V212.126H288.61V223.286H285.21V221.266C284.917 221.932 284.464 222.459 283.85 222.846C283.237 223.232 282.504 223.426 281.65 223.426C280.73 223.426 279.904 223.199 279.17 222.746C278.45 222.279 277.877 221.612 277.45 220.746C277.037 219.879 276.83 218.866 276.83 217.706C276.83 216.532 277.037 215.519 277.45 214.666C277.877 213.799 278.45 213.139 279.17 212.686C279.904 212.219 280.73 211.986 281.65 211.986ZM282.75 214.986C282.017 214.986 281.424 215.226 280.97 215.706C280.53 216.186 280.31 216.852 280.31 217.706C280.31 218.559 280.53 219.226 280.97 219.706C281.424 220.186 282.017 220.426 282.75 220.426C283.47 220.426 284.057 220.179 284.51 219.686C284.977 219.192 285.21 218.532 285.21 217.706C285.21 216.866 284.977 216.206 284.51 215.726C284.057 215.232 283.47 214.986 282.75 214.986ZM297.925 211.986C298.845 211.986 299.665 212.219 300.385 212.686C301.118 213.139 301.692 213.799 302.105 214.666C302.532 215.519 302.745 216.532 302.745 217.706C302.745 218.866 302.532 219.879 302.105 220.746C301.692 221.612 301.118 222.279 300.385 222.746C299.665 223.199 298.845 223.426 297.925 223.426C297.072 223.426 296.338 223.232 295.725 222.846C295.112 222.459 294.665 221.932 294.385 221.266V223.286H290.965V208.486H294.385V214.146C294.665 213.479 295.112 212.952 295.725 212.566C296.338 212.179 297.072 211.986 297.925 211.986ZM296.825 214.986C296.105 214.986 295.512 215.232 295.045 215.726C294.592 216.206 294.365 216.866 294.365 217.706C294.365 218.532 294.592 219.192 295.045 219.686C295.512 220.179 296.105 220.426 296.825 220.426C297.558 220.426 298.145 220.186 298.585 219.706C299.038 219.226 299.265 218.559 299.265 217.706C299.265 216.852 299.038 216.186 298.585 215.706C298.145 215.226 297.558 214.986 296.825 214.986ZM307.94 208.486V223.286H304.52V208.486H307.94ZM320.901 217.406C320.901 217.686 320.868 217.992 320.801 218.326H313.061C313.101 219.166 313.314 219.772 313.701 220.146C314.088 220.506 314.581 220.686 315.181 220.686C315.688 220.686 316.108 220.559 316.441 220.306C316.774 220.052 316.994 219.726 317.101 219.326H320.721C320.574 220.112 320.254 220.819 319.761 221.446C319.268 222.059 318.641 222.546 317.881 222.906C317.121 223.252 316.274 223.426 315.341 223.426C314.248 223.426 313.274 223.199 312.421 222.746C311.581 222.279 310.921 221.612 310.441 220.746C309.961 219.879 309.721 218.866 309.721 217.706C309.721 216.532 309.954 215.519 310.421 214.666C310.901 213.799 311.568 213.139 312.421 212.686C313.274 212.219 314.248 211.986 315.341 211.986C316.448 211.986 317.421 212.212 318.261 212.666C319.101 213.119 319.748 213.759 320.201 214.586C320.668 215.399 320.901 216.339 320.901 217.406ZM317.441 216.886C317.454 216.152 317.254 215.606 316.841 215.246C316.441 214.872 315.941 214.686 315.341 214.686C314.714 214.686 314.194 214.872 313.781 215.246C313.368 215.619 313.134 216.166 313.081 216.886H317.441Z" fill="#686868"/>
</svg>