<svg width="452" height="332" viewBox="0 0 452 332" fill="none" xmlns="http://www.w3.org/2000/svg">
<path fill-rule="evenodd" clip-rule="evenodd" d="M1 6C1 3.23857 3.23858 1 6 1H446C448.761 1 451 3.23858 451 6V326C451 328.761 448.761 331 446 331H6.00001C3.23859 331 1 328.761 1 326V6Z" fill="#DDDDDD" stroke="#C2C2C2"/>
<path d="M251.5 137.952C257.455 137.952 262.286 133.121 262.286 127.167C262.286 121.212 257.455 116.381 251.5 116.381C245.545 116.381 240.714 121.212 240.714 127.167C240.714 133.121 245.545 137.952 251.5 137.952Z" fill="#B4B4B4"/>
<path d="M270.375 102H182.292C178.786 102 176 104.854 176 108.359V181.927C176 185.432 178.786 188.286 182.292 188.286H270.375C273.88 188.286 276.667 185.432 276.667 181.927V108.359C276.667 104.854 273.88 102 270.375 102ZM247.208 146.424C246.534 145.637 245.5 145.031 244.332 145.031C243.186 145.031 242.377 145.57 241.456 146.311L237.254 149.862C236.378 150.491 235.681 150.918 234.67 150.918C233.704 150.918 232.827 150.558 232.198 149.996C231.973 149.794 231.569 149.412 231.232 149.075L219.143 135.997C218.244 134.964 216.896 134.312 215.39 134.312C213.885 134.312 212.492 135.054 211.615 136.065L183.19 170.354V111.819C183.415 110.292 184.606 109.19 186.134 109.19H266.51C268.061 109.19 269.319 110.336 269.409 111.887L269.476 170.399L247.208 146.424Z" fill="#B4B4B4"/>
<path d="M153.977 208.146V222.286H150.557V208.146H153.977ZM170.798 211.006C172.172 211.006 173.252 211.432 174.038 212.286C174.825 213.126 175.218 214.299 175.218 215.806V222.286H171.818V216.206C171.818 215.499 171.625 214.952 171.238 214.566C170.865 214.166 170.352 213.966 169.698 213.966C169.018 213.966 168.478 214.179 168.078 214.606C167.692 215.019 167.498 215.606 167.498 216.366V222.286H164.078V216.206C164.078 215.499 163.892 214.952 163.518 214.566C163.145 214.166 162.632 213.966 161.978 213.966C161.298 213.966 160.758 214.172 160.358 214.586C159.958 214.999 159.758 215.592 159.758 216.366V222.286H156.338V211.126H159.758V213.026C160.052 212.399 160.498 211.906 161.098 211.546C161.712 211.186 162.425 211.006 163.238 211.006C164.092 211.006 164.845 211.206 165.498 211.606C166.152 211.992 166.645 212.552 166.978 213.286C167.365 212.592 167.892 212.039 168.558 211.626C169.238 211.212 169.985 211.006 170.798 211.006ZM181.731 210.986C182.584 210.986 183.317 211.179 183.931 211.566C184.544 211.952 184.997 212.479 185.291 213.146V211.126H188.691V222.286H185.291V220.266C184.997 220.932 184.544 221.459 183.931 221.846C183.317 222.232 182.584 222.426 181.731 222.426C180.811 222.426 179.984 222.199 179.251 221.746C178.531 221.279 177.957 220.612 177.531 219.746C177.117 218.879 176.911 217.866 176.911 216.706C176.911 215.532 177.117 214.519 177.531 213.666C177.957 212.799 178.531 212.139 179.251 211.686C179.984 211.219 180.811 210.986 181.731 210.986ZM182.831 213.986C182.097 213.986 181.504 214.226 181.051 214.706C180.611 215.186 180.391 215.852 180.391 216.706C180.391 217.559 180.611 218.226 181.051 218.706C181.504 219.186 182.097 219.426 182.831 219.426C183.551 219.426 184.137 219.179 184.591 218.686C185.057 218.192 185.291 217.532 185.291 216.706C185.291 215.866 185.057 215.206 184.591 214.726C184.137 214.232 183.551 213.986 182.831 213.986ZM195.285 210.986C196.139 210.986 196.872 211.179 197.485 211.566C198.099 211.952 198.552 212.479 198.845 213.146V211.126H202.245V222.226C202.245 223.266 202.045 224.199 201.645 225.026C201.245 225.866 200.632 226.532 199.805 227.026C198.979 227.519 197.952 227.766 196.725 227.766C195.045 227.766 193.699 227.366 192.685 226.566C191.685 225.779 191.085 224.706 190.885 223.346H194.265C194.372 223.799 194.612 224.152 194.985 224.406C195.372 224.659 195.872 224.786 196.485 224.786C197.192 224.786 197.759 224.579 198.185 224.166C198.625 223.766 198.845 223.119 198.845 222.226V220.266C198.552 220.932 198.099 221.459 197.485 221.846C196.872 222.232 196.139 222.426 195.285 222.426C194.365 222.426 193.539 222.199 192.805 221.746C192.085 221.279 191.512 220.612 191.085 219.746C190.672 218.879 190.465 217.866 190.465 216.706C190.465 215.532 190.672 214.519 191.085 213.666C191.512 212.799 192.085 212.139 192.805 211.686C193.539 211.219 194.365 210.986 195.285 210.986ZM196.385 213.986C195.652 213.986 195.059 214.226 194.605 214.706C194.165 215.186 193.945 215.852 193.945 216.706C193.945 217.559 194.165 218.226 194.605 218.706C195.059 219.186 195.652 219.426 196.385 219.426C197.105 219.426 197.692 219.179 198.145 218.686C198.612 218.192 198.845 217.532 198.845 216.706C198.845 215.866 198.612 215.206 198.145 214.726C197.692 214.232 197.105 213.986 196.385 213.986ZM215.2 216.406C215.2 216.686 215.167 216.992 215.1 217.326H207.36C207.4 218.166 207.613 218.772 208 219.146C208.387 219.506 208.88 219.686 209.48 219.686C209.987 219.686 210.407 219.559 210.74 219.306C211.073 219.052 211.293 218.726 211.4 218.326H215.02C214.873 219.112 214.553 219.819 214.06 220.446C213.567 221.059 212.94 221.546 212.18 221.906C211.42 222.252 210.573 222.426 209.64 222.426C208.547 222.426 207.573 222.199 206.72 221.746C205.88 221.279 205.22 220.612 204.74 219.746C204.26 218.879 204.02 217.866 204.02 216.706C204.02 215.532 204.253 214.519 204.72 213.666C205.2 212.799 205.867 212.139 206.72 211.686C207.573 211.219 208.547 210.986 209.64 210.986C210.747 210.986 211.72 211.212 212.56 211.666C213.4 212.119 214.047 212.759 214.5 213.586C214.967 214.399 215.2 215.339 215.2 216.406ZM211.74 215.886C211.753 215.152 211.553 214.606 211.14 214.246C210.74 213.872 210.24 213.686 209.64 213.686C209.013 213.686 208.493 213.872 208.08 214.246C207.667 214.619 207.433 215.166 207.38 215.886H211.74ZM224.407 217.326V222.286H220.987V208.146H226.527C228.207 208.146 229.487 208.566 230.367 209.406C231.247 210.232 231.687 211.352 231.687 212.766C231.687 213.646 231.487 214.432 231.087 215.126C230.7 215.806 230.12 216.346 229.347 216.746C228.573 217.132 227.633 217.326 226.527 217.326H224.407ZM226.147 214.586C227.52 214.586 228.207 213.979 228.207 212.766C228.207 211.526 227.52 210.906 226.147 210.906H224.407V214.586H226.147ZM236.789 213.226C237.216 212.546 237.763 212.006 238.429 211.606C239.109 211.206 239.843 211.006 240.629 211.006V214.666H239.649C238.743 214.666 238.036 214.859 237.529 215.246C237.036 215.632 236.789 216.286 236.789 217.206V222.286H233.369V211.126H236.789V213.226ZM252.661 216.406C252.661 216.686 252.628 216.992 252.561 217.326H244.821C244.861 218.166 245.074 218.772 245.461 219.146C245.848 219.506 246.341 219.686 246.941 219.686C247.448 219.686 247.868 219.559 248.201 219.306C248.534 219.052 248.754 218.726 248.861 218.326H252.481C252.334 219.112 252.014 219.819 251.521 220.446C251.028 221.059 250.401 221.546 249.641 221.906C248.881 222.252 248.034 222.426 247.101 222.426C246.008 222.426 245.034 222.199 244.181 221.746C243.341 221.279 242.681 220.612 242.201 219.746C241.721 218.879 241.481 217.866 241.481 216.706C241.481 215.532 241.714 214.519 242.181 213.666C242.661 212.799 243.328 212.139 244.181 211.686C245.034 211.219 246.008 210.986 247.101 210.986C248.208 210.986 249.181 211.212 250.021 211.666C250.861 212.119 251.508 212.759 251.961 213.586C252.428 214.399 252.661 215.339 252.661 216.406ZM249.201 215.886C249.214 215.152 249.014 214.606 248.601 214.246C248.201 213.872 247.701 213.686 247.101 213.686C246.474 213.686 245.954 213.872 245.541 214.246C245.128 214.619 244.894 215.166 244.841 215.886H249.201ZM259.604 218.946L262.024 211.126H265.664L261.704 222.286H257.464L253.504 211.126H257.144L259.604 218.946ZM266.76 207.986C266.76 207.466 266.947 207.039 267.32 206.706C267.694 206.359 268.187 206.186 268.8 206.186C269.414 206.186 269.907 206.359 270.28 206.706C270.654 207.039 270.84 207.466 270.84 207.986C270.84 208.492 270.654 208.919 270.28 209.266C269.907 209.599 269.414 209.766 268.8 209.766C268.187 209.766 267.694 209.599 267.32 209.266C266.947 208.919 266.76 208.492 266.76 207.986ZM270.5 211.126V222.286H267.08V211.126H270.5ZM283.462 216.406C283.462 216.686 283.428 216.992 283.362 217.326H275.622C275.662 218.166 275.875 218.772 276.262 219.146C276.648 219.506 277.142 219.686 277.742 219.686C278.248 219.686 278.668 219.559 279.002 219.306C279.335 219.052 279.555 218.726 279.662 218.326H283.282C283.135 219.112 282.815 219.819 282.322 220.446C281.828 221.059 281.202 221.546 280.442 221.906C279.682 222.252 278.835 222.426 277.902 222.426C276.808 222.426 275.835 222.199 274.982 221.746C274.142 221.279 273.482 220.612 273.002 219.746C272.522 218.879 272.282 217.866 272.282 216.706C272.282 215.532 272.515 214.519 272.982 213.666C273.462 212.799 274.128 212.139 274.982 211.686C275.835 211.219 276.808 210.986 277.902 210.986C279.008 210.986 279.982 211.212 280.822 211.666C281.662 212.119 282.308 212.759 282.762 213.586C283.228 214.399 283.462 215.339 283.462 216.406ZM280.002 215.886C280.015 215.152 279.815 214.606 279.402 214.246C279.002 213.872 278.502 213.686 277.902 213.686C277.275 213.686 276.755 213.872 276.342 214.246C275.928 214.619 275.695 215.166 275.642 215.886H280.002ZM301.564 211.126L298.704 222.286H294.884L292.864 214.806L290.824 222.286H287.004L284.144 211.126H287.564L289.044 219.166L291.124 211.126H294.764L296.904 219.186L298.384 211.126H301.564Z" fill="#686868"/>
</svg>
