<svg width="836" height="184" viewBox="0 0 836 184" fill="none" xmlns="http://www.w3.org/2000/svg">
<path d="M4.13867 107.137V115H3.14502V108.377L1.1416 109.108V108.211L3.98291 107.137H4.13867ZM11.9697 110.467V111.659C11.9697 112.3 11.9124 112.841 11.7979 113.281C11.6833 113.722 11.5186 114.076 11.3037 114.345C11.0889 114.613 10.8293 114.808 10.5249 114.93C10.2241 115.048 9.88395 115.107 9.50439 115.107C9.20361 115.107 8.92611 115.07 8.67188 114.995C8.41764 114.919 8.18848 114.799 7.98438 114.635C7.78385 114.466 7.61198 114.248 7.46875 113.979C7.32552 113.711 7.21631 113.385 7.14111 113.002C7.06592 112.619 7.02832 112.171 7.02832 111.659V110.467C7.02832 109.826 7.08561 109.289 7.2002 108.855C7.31836 108.422 7.48486 108.075 7.69971 107.813C7.91455 107.549 8.17236 107.359 8.47314 107.244C8.77751 107.13 9.11768 107.072 9.49365 107.072C9.79801 107.072 10.0773 107.11 10.3315 107.185C10.5894 107.257 10.8185 107.373 11.019 107.534C11.2196 107.692 11.3896 107.903 11.5293 108.168C11.6725 108.429 11.7817 108.75 11.8569 109.129C11.9321 109.509 11.9697 109.955 11.9697 110.467ZM10.9707 111.82V110.3C10.9707 109.949 10.9492 109.641 10.9062 109.376C10.8669 109.108 10.8078 108.879 10.729 108.689C10.6502 108.499 10.55 108.345 10.4282 108.227C10.3101 108.109 10.1722 108.023 10.0146 107.969C9.86068 107.912 9.68701 107.883 9.49365 107.883C9.25732 107.883 9.04785 107.928 8.86523 108.018C8.68262 108.104 8.52865 108.241 8.40332 108.431C8.28158 108.621 8.18848 108.87 8.12402 109.178C8.05957 109.486 8.02734 109.86 8.02734 110.3V111.82C8.02734 112.171 8.04704 112.481 8.08643 112.75C8.12939 113.018 8.19206 113.251 8.27441 113.448C8.35677 113.641 8.45703 113.8 8.5752 113.926C8.69336 114.051 8.82943 114.144 8.9834 114.205C9.14095 114.262 9.31462 114.291 9.50439 114.291C9.74788 114.291 9.96094 114.244 10.1436 114.151C10.3262 114.058 10.4784 113.913 10.6001 113.716C10.7254 113.516 10.8185 113.26 10.8794 112.948C10.9403 112.633 10.9707 112.257 10.9707 111.82ZM18.1572 110.467V111.659C18.1572 112.3 18.0999 112.841 17.9854 113.281C17.8708 113.722 17.7061 114.076 17.4912 114.345C17.2764 114.613 17.0168 114.808 16.7124 114.93C16.4116 115.048 16.0715 115.107 15.6919 115.107C15.3911 115.107 15.1136 115.07 14.8594 114.995C14.6051 114.919 14.376 114.799 14.1719 114.635C13.9714 114.466 13.7995 114.248 13.6562 113.979C13.513 113.711 13.4038 113.385 13.3286 113.002C13.2534 112.619 13.2158 112.171 13.2158 111.659V110.467C13.2158 109.826 13.2731 109.289 13.3877 108.855C13.5059 108.422 13.6724 108.075 13.8872 107.813C14.1021 107.549 14.3599 107.359 14.6606 107.244C14.965 107.13 15.3052 107.072 15.6812 107.072C15.9855 107.072 16.2648 107.11 16.519 107.185C16.7769 107.257 17.006 107.373 17.2065 107.534C17.4071 107.692 17.5771 107.903 17.7168 108.168C17.86 108.429 17.9692 108.75 18.0444 109.129C18.1196 109.509 18.1572 109.955 18.1572 110.467ZM17.1582 111.82V110.3C17.1582 109.949 17.1367 109.641 17.0938 109.376C17.0544 109.108 16.9953 108.879 16.9165 108.689C16.8377 108.499 16.7375 108.345 16.6157 108.227C16.4976 108.109 16.3597 108.023 16.2021 107.969C16.0482 107.912 15.8745 107.883 15.6812 107.883C15.4448 107.883 15.2354 107.928 15.0527 108.018C14.8701 108.104 14.7161 108.241 14.5908 108.431C14.4691 108.621 14.376 108.87 14.3115 109.178C14.2471 109.486 14.2148 109.86 14.2148 110.3V111.82C14.2148 112.171 14.2345 112.481 14.2739 112.75C14.3169 113.018 14.3796 113.251 14.4619 113.448C14.5443 113.641 14.6445 113.8 14.7627 113.926C14.8809 114.051 15.0169 114.144 15.1709 114.205C15.3285 114.262 15.5021 114.291 15.6919 114.291C15.9354 114.291 16.1484 114.244 16.3311 114.151C16.5137 114.058 16.6659 113.913 16.7876 113.716C16.9129 113.516 17.006 113.26 17.0669 112.948C17.1278 112.633 17.1582 112.257 17.1582 111.82ZM20.542 106.75V115H19.543V106.75H20.542ZM24.0923 109.188L21.5571 111.901L20.1392 113.373L20.0586 112.314L21.0737 111.101L22.8784 109.188H24.0923ZM23.1846 115L21.1113 112.229L21.627 111.342L24.3555 115H23.1846Z" fill="white"/>
<path d="M53.5701 173.18H54.5745L57.1365 179.555L59.6931 173.18H60.7029L57.5232 181H56.739L53.5701 173.18ZM53.2424 173.18H54.1287L54.2737 177.949V181H53.2424V173.18ZM60.1389 173.18H61.0251V181H59.9939V177.949L60.1389 173.18ZM62.4324 178.159V178.035C62.4324 177.616 62.4932 177.228 62.615 176.87C62.7367 176.508 62.9122 176.195 63.1414 175.93C63.3705 175.661 63.648 175.453 63.9739 175.307C64.2997 175.156 64.665 175.081 65.0696 175.081C65.4778 175.081 65.8448 175.156 66.1707 175.307C66.5001 175.453 66.7794 175.661 67.0085 175.93C67.2413 176.195 67.4185 176.508 67.5403 176.87C67.662 177.228 67.7229 177.616 67.7229 178.035V178.159C67.7229 178.578 67.662 178.966 67.5403 179.324C67.4185 179.682 67.2413 179.996 67.0085 180.264C66.7794 180.529 66.5019 180.737 66.176 180.887C65.8538 181.034 65.4885 181.107 65.0803 181.107C64.6721 181.107 64.3051 181.034 63.9792 180.887C63.6534 180.737 63.3741 180.529 63.1414 180.264C62.9122 179.996 62.7367 179.682 62.615 179.324C62.4932 178.966 62.4324 178.578 62.4324 178.159ZM63.426 178.035V178.159C63.426 178.449 63.46 178.723 63.5281 178.98C63.5961 179.235 63.6982 179.46 63.8342 179.657C63.9739 179.854 64.1475 180.01 64.3552 180.125C64.5629 180.236 64.8046 180.291 65.0803 180.291C65.3525 180.291 65.5906 180.236 65.7947 180.125C66.0024 180.01 66.1742 179.854 66.3103 179.657C66.4464 179.46 66.5484 179.235 66.6165 178.98C66.6881 178.723 66.7239 178.449 66.7239 178.159V178.035C66.7239 177.749 66.6881 177.478 66.6165 177.224C66.5484 176.966 66.4446 176.739 66.3049 176.542C66.1689 176.341 65.997 176.184 65.7893 176.069C65.5852 175.955 65.3453 175.897 65.0696 175.897C64.7974 175.897 64.5575 175.955 64.3499 176.069C64.1458 176.184 63.9739 176.341 63.8342 176.542C63.6982 176.739 63.5961 176.966 63.5281 177.224C63.46 177.478 63.426 177.749 63.426 178.035ZM69.9626 176.429V181H68.969V175.188H69.9089L69.9626 176.429ZM69.7263 177.874L69.3127 177.858C69.3163 177.46 69.3754 177.093 69.49 176.757C69.6046 176.417 69.7657 176.121 69.9734 175.871C70.1811 175.62 70.4281 175.427 70.7146 175.291C71.0046 175.151 71.3251 175.081 71.676 175.081C71.9625 175.081 72.2203 175.12 72.4495 175.199C72.6786 175.274 72.8738 175.396 73.0349 175.564C73.1996 175.733 73.325 175.951 73.4109 176.22C73.4968 176.485 73.5398 176.809 73.5398 177.192V181H72.5408V177.181C72.5408 176.877 72.496 176.633 72.4065 176.451C72.317 176.264 72.1863 176.13 72.0144 176.048C71.8425 175.962 71.6313 175.919 71.3806 175.919C71.1335 175.919 70.908 175.971 70.7039 176.075C70.5033 176.179 70.3297 176.322 70.1829 176.504C70.0396 176.687 69.9268 176.896 69.8445 177.133C69.7657 177.366 69.7263 177.613 69.7263 177.874Z" fill="white"/>
<path d="M253.415 173.18V181H252.395V173.18H253.415ZM255.929 173.18V174.028H249.886V173.18H255.929ZM259.979 179.657V175.188H260.978V181H260.027L259.979 179.657ZM260.167 178.433L260.58 178.422C260.58 178.809 260.539 179.167 260.457 179.496C260.378 179.822 260.249 180.105 260.07 180.345C259.891 180.585 259.656 180.773 259.366 180.909C259.076 181.041 258.723 181.107 258.308 181.107C258.025 181.107 257.766 181.066 257.529 180.984C257.297 180.902 257.096 180.774 256.928 180.603C256.759 180.431 256.629 180.207 256.536 179.931C256.446 179.655 256.401 179.324 256.401 178.938V175.188H257.395V178.948C257.395 179.21 257.424 179.426 257.481 179.598C257.542 179.766 257.622 179.901 257.723 180.001C257.826 180.098 257.941 180.166 258.066 180.205C258.195 180.244 258.328 180.264 258.464 180.264C258.886 180.264 259.221 180.184 259.468 180.022C259.715 179.858 259.893 179.638 260 179.362C260.111 179.083 260.167 178.773 260.167 178.433ZM264.904 181.107C264.499 181.107 264.132 181.039 263.803 180.903C263.477 180.764 263.196 180.569 262.959 180.318C262.727 180.067 262.548 179.77 262.422 179.426C262.297 179.083 262.234 178.707 262.234 178.298V178.073C262.234 177.6 262.304 177.179 262.444 176.811C262.583 176.438 262.773 176.123 263.013 175.865C263.253 175.607 263.525 175.412 263.83 175.28C264.134 175.147 264.449 175.081 264.775 175.081C265.19 175.081 265.548 175.153 265.849 175.296C266.153 175.439 266.402 175.64 266.596 175.897C266.789 176.152 266.932 176.452 267.025 176.8C267.118 177.144 267.165 177.52 267.165 177.928V178.374H262.825V177.562H266.171V177.487C266.157 177.229 266.103 176.979 266.01 176.735C265.921 176.492 265.778 176.291 265.581 176.134C265.384 175.976 265.115 175.897 264.775 175.897C264.549 175.897 264.342 175.946 264.152 176.042C263.962 176.136 263.799 176.275 263.663 176.461C263.527 176.648 263.421 176.875 263.346 177.144C263.271 177.412 263.233 177.722 263.233 178.073V178.298C263.233 178.574 263.271 178.834 263.346 179.077C263.425 179.317 263.538 179.528 263.685 179.711C263.835 179.894 264.016 180.037 264.227 180.141C264.442 180.244 264.685 180.296 264.958 180.296C265.308 180.296 265.606 180.225 265.849 180.082C266.093 179.938 266.306 179.747 266.488 179.507L267.09 179.985C266.965 180.175 266.805 180.355 266.612 180.527C266.418 180.699 266.18 180.839 265.897 180.946C265.618 181.054 265.287 181.107 264.904 181.107Z" fill="white"/>
<path d="M441.178 178.637L442.73 173.18H443.482L443.047 175.301L441.377 181H440.63L441.178 178.637ZM439.572 173.18L440.808 178.529L441.178 181H440.437L438.541 173.18H439.572ZM445.491 178.524L446.7 173.18H447.736L445.846 181H445.104L445.491 178.524ZM443.595 173.18L445.104 178.637L445.652 181H444.906L443.294 175.301L442.854 173.18H443.595ZM450.975 181.107C450.57 181.107 450.203 181.039 449.874 180.903C449.548 180.764 449.267 180.569 449.031 180.318C448.798 180.067 448.619 179.77 448.494 179.426C448.368 179.083 448.306 178.707 448.306 178.298V178.073C448.306 177.6 448.375 177.179 448.515 176.811C448.655 176.438 448.845 176.123 449.084 175.865C449.324 175.607 449.597 175.412 449.901 175.28C450.205 175.147 450.52 175.081 450.846 175.081C451.262 175.081 451.62 175.153 451.92 175.296C452.225 175.439 452.474 175.64 452.667 175.897C452.86 176.152 453.004 176.452 453.097 176.8C453.19 177.144 453.236 177.52 453.236 177.928V178.374H448.896V177.562H452.243V177.487C452.228 177.229 452.175 176.979 452.082 176.735C451.992 176.492 451.849 176.291 451.652 176.134C451.455 175.976 451.186 175.897 450.846 175.897C450.621 175.897 450.413 175.946 450.223 176.042C450.033 176.136 449.87 176.275 449.734 176.461C449.598 176.648 449.493 176.875 449.417 177.144C449.342 177.412 449.305 177.722 449.305 178.073V178.298C449.305 178.574 449.342 178.834 449.417 179.077C449.496 179.317 449.609 179.528 449.756 179.711C449.906 179.894 450.087 180.037 450.298 180.141C450.513 180.244 450.757 180.296 451.029 180.296C451.38 180.296 451.677 180.225 451.92 180.082C452.164 179.938 452.377 179.747 452.56 179.507L453.161 179.985C453.036 180.175 452.876 180.355 452.683 180.527C452.49 180.699 452.252 180.839 451.969 180.946C451.689 181.054 451.358 181.107 450.975 181.107ZM458.06 179.872V172.75H459.059V181H458.146L458.06 179.872ZM454.149 178.159V178.046C454.149 177.602 454.203 177.199 454.311 176.837C454.422 176.472 454.577 176.159 454.778 175.897C454.982 175.636 455.224 175.436 455.503 175.296C455.786 175.153 456.101 175.081 456.448 175.081C456.813 175.081 457.132 175.146 457.404 175.274C457.68 175.4 457.913 175.584 458.103 175.828C458.296 176.068 458.448 176.358 458.559 176.698C458.67 177.038 458.747 177.423 458.79 177.853V178.347C458.751 178.773 458.674 179.156 458.559 179.496C458.448 179.836 458.296 180.126 458.103 180.366C457.913 180.606 457.68 180.791 457.404 180.919C457.129 181.045 456.806 181.107 456.438 181.107C456.097 181.107 455.786 181.034 455.503 180.887C455.224 180.74 454.982 180.535 454.778 180.27C454.577 180.005 454.422 179.693 454.311 179.335C454.203 178.973 454.149 178.581 454.149 178.159ZM455.148 178.046V178.159C455.148 178.449 455.177 178.721 455.234 178.975C455.295 179.229 455.388 179.453 455.514 179.646C455.639 179.84 455.798 179.992 455.992 180.103C456.185 180.21 456.416 180.264 456.685 180.264C457.014 180.264 457.284 180.194 457.496 180.055C457.71 179.915 457.882 179.731 458.011 179.501C458.14 179.272 458.24 179.023 458.312 178.755V177.46C458.269 177.264 458.206 177.074 458.124 176.891C458.045 176.705 457.941 176.54 457.812 176.397C457.687 176.25 457.531 176.134 457.345 176.048C457.163 175.962 456.946 175.919 456.695 175.919C456.423 175.919 456.189 175.976 455.992 176.091C455.798 176.202 455.639 176.356 455.514 176.553C455.388 176.746 455.295 176.972 455.234 177.229C455.177 177.484 455.148 177.756 455.148 178.046Z" fill="white"/>
<path d="M636.812 173.18V181H635.791V173.18H636.812ZM639.325 173.18V174.028H633.283V173.18H639.325ZM641.329 172.75V181H640.335V172.75H641.329ZM641.093 177.874L640.679 177.858C640.683 177.46 640.742 177.093 640.856 176.757C640.971 176.417 641.132 176.121 641.34 175.871C641.547 175.62 641.794 175.427 642.081 175.291C642.371 175.151 642.691 175.081 643.042 175.081C643.329 175.081 643.587 175.12 643.816 175.199C644.045 175.274 644.24 175.396 644.401 175.564C644.566 175.733 644.691 175.951 644.777 176.22C644.863 176.485 644.906 176.809 644.906 177.192V181H643.907V177.181C643.907 176.877 643.862 176.633 643.773 176.451C643.683 176.264 643.552 176.13 643.381 176.048C643.209 175.962 642.997 175.919 642.747 175.919C642.5 175.919 642.274 175.971 642.07 176.075C641.87 176.179 641.696 176.322 641.549 176.504C641.406 176.687 641.293 176.896 641.211 177.133C641.132 177.366 641.093 177.613 641.093 177.874ZM649.949 179.657V175.188H650.948V181H649.998L649.949 179.657ZM650.137 178.433L650.551 178.422C650.551 178.809 650.51 179.167 650.427 179.496C650.349 179.822 650.22 180.105 650.041 180.345C649.862 180.585 649.627 180.773 649.337 180.909C649.047 181.041 648.694 181.107 648.279 181.107C647.996 181.107 647.737 181.066 647.5 180.984C647.267 180.902 647.067 180.774 646.899 180.603C646.73 180.431 646.6 180.207 646.507 179.931C646.417 179.655 646.372 179.324 646.372 178.938V175.188H647.366V178.948C647.366 179.21 647.395 179.426 647.452 179.598C647.513 179.766 647.593 179.901 647.694 180.001C647.797 180.098 647.912 180.166 648.037 180.205C648.166 180.244 648.299 180.264 648.435 180.264C648.857 180.264 649.192 180.184 649.439 180.022C649.686 179.858 649.864 179.638 649.971 179.362C650.082 179.083 650.137 178.773 650.137 178.433Z" fill="white"/>
<path d="M821.074 173.18V181H820.037V173.18H821.074ZM824.35 176.698V177.546H820.848V176.698H824.35ZM824.882 173.18V174.028H820.848V173.18H824.882ZM826.821 176.102V181H825.827V175.188H826.794L826.821 176.102ZM828.636 175.156L828.631 176.08C828.549 176.062 828.47 176.051 828.395 176.048C828.323 176.041 828.241 176.037 828.147 176.037C827.918 176.037 827.716 176.073 827.541 176.145C827.365 176.216 827.216 176.316 827.095 176.445C826.973 176.574 826.876 176.728 826.805 176.907C826.737 177.083 826.692 177.276 826.67 177.487L826.391 177.648C826.391 177.298 826.425 176.968 826.493 176.66C826.565 176.352 826.674 176.08 826.821 175.844C826.968 175.604 827.154 175.418 827.379 175.285C827.609 175.149 827.881 175.081 828.196 175.081C828.267 175.081 828.35 175.09 828.443 175.108C828.536 175.122 828.6 175.138 828.636 175.156ZM830.634 175.188V181H829.635V175.188H830.634ZM829.56 173.647C829.56 173.486 829.608 173.35 829.705 173.239C829.805 173.128 829.952 173.072 830.146 173.072C830.335 173.072 830.48 173.128 830.581 173.239C830.684 173.35 830.736 173.486 830.736 173.647C830.736 173.801 830.684 173.933 830.581 174.044C830.48 174.152 830.335 174.206 830.146 174.206C829.952 174.206 829.805 174.152 829.705 174.044C829.608 173.933 829.56 173.801 829.56 173.647Z" fill="white"/>
<path d="M2.12988 59.2778L1.33496 59.0737L1.72705 55.1797H5.73926V56.0981H2.57031L2.33398 58.2251C2.47721 58.1427 2.65804 58.0658 2.87646 57.9941C3.09847 57.9225 3.3527 57.8867 3.63916 57.8867C4.00081 57.8867 4.32487 57.9494 4.61133 58.0747C4.89779 58.1965 5.14128 58.3719 5.3418 58.6011C5.5459 58.8302 5.70166 59.106 5.80908 59.4282C5.9165 59.7505 5.97021 60.1104 5.97021 60.5078C5.97021 60.8838 5.91829 61.2293 5.81445 61.5444C5.71419 61.8595 5.56201 62.1353 5.35791 62.3716C5.15381 62.6043 4.896 62.7852 4.58447 62.9141C4.27653 63.043 3.91309 63.1074 3.49414 63.1074C3.17904 63.1074 2.88005 63.0645 2.59717 62.9785C2.31787 62.889 2.06722 62.7547 1.84521 62.5757C1.62679 62.3931 1.44775 62.1675 1.30811 61.8989C1.17204 61.6268 1.0861 61.3081 1.05029 60.9429H1.99561C2.03857 61.2365 2.12451 61.4836 2.25342 61.6841C2.38232 61.8846 2.55062 62.0368 2.7583 62.1406C2.96956 62.2409 3.21484 62.291 3.49414 62.291C3.73047 62.291 3.93994 62.2498 4.12256 62.1675C4.30518 62.0851 4.45915 61.967 4.58447 61.813C4.7098 61.659 4.80469 61.4728 4.86914 61.2544C4.93717 61.036 4.97119 60.7907 4.97119 60.5186C4.97119 60.2715 4.93717 60.0423 4.86914 59.8311C4.80111 59.6198 4.69906 59.4354 4.56299 59.2778C4.4305 59.1203 4.26758 58.9985 4.07422 58.9126C3.88086 58.8231 3.65885 58.7783 3.4082 58.7783C3.0752 58.7783 2.82275 58.8231 2.65088 58.9126C2.48258 59.0021 2.30892 59.1239 2.12988 59.2778ZM11.9697 58.4668V59.6592C11.9697 60.3001 11.9124 60.8408 11.7979 61.2812C11.6833 61.7217 11.5186 62.0762 11.3037 62.3447C11.0889 62.6133 10.8293 62.8084 10.5249 62.9302C10.2241 63.0483 9.88395 63.1074 9.50439 63.1074C9.20361 63.1074 8.92611 63.0698 8.67188 62.9946C8.41764 62.9194 8.18848 62.7995 7.98438 62.6348C7.78385 62.4665 7.61198 62.248 7.46875 61.9795C7.32552 61.7109 7.21631 61.3851 7.14111 61.002C7.06592 60.6188 7.02832 60.1712 7.02832 59.6592V58.4668C7.02832 57.8258 7.08561 57.2887 7.2002 56.8555C7.31836 56.4222 7.48486 56.0749 7.69971 55.8135C7.91455 55.5485 8.17236 55.3587 8.47314 55.2441C8.77751 55.1296 9.11768 55.0723 9.49365 55.0723C9.79801 55.0723 10.0773 55.1099 10.3315 55.1851C10.5894 55.2567 10.8185 55.373 11.019 55.5342C11.2196 55.6917 11.3896 55.903 11.5293 56.168C11.6725 56.4294 11.7817 56.7498 11.8569 57.1294C11.9321 57.509 11.9697 57.9548 11.9697 58.4668ZM10.9707 59.8203V58.3003C10.9707 57.9494 10.9492 57.6414 10.9062 57.3765C10.8669 57.1079 10.8078 56.8787 10.729 56.689C10.6502 56.4992 10.55 56.3452 10.4282 56.2271C10.3101 56.1089 10.1722 56.0229 10.0146 55.9692C9.86068 55.9119 9.68701 55.8833 9.49365 55.8833C9.25732 55.8833 9.04785 55.9281 8.86523 56.0176C8.68262 56.1035 8.52865 56.2414 8.40332 56.4312C8.28158 56.6209 8.18848 56.8698 8.12402 57.1777C8.05957 57.4857 8.02734 57.8599 8.02734 58.3003V59.8203C8.02734 60.1712 8.04704 60.481 8.08643 60.7495C8.12939 61.0181 8.19206 61.2508 8.27441 61.4478C8.35677 61.6411 8.45703 61.8005 8.5752 61.9258C8.69336 62.0511 8.82943 62.1442 8.9834 62.2051C9.14095 62.2624 9.31462 62.291 9.50439 62.291C9.74788 62.291 9.96094 62.2445 10.1436 62.1514C10.3262 62.0583 10.4784 61.9132 10.6001 61.7163C10.7254 61.5158 10.8185 61.2598 10.8794 60.9482C10.9403 60.6331 10.9707 60.2572 10.9707 59.8203ZM18.1572 58.4668V59.6592C18.1572 60.3001 18.0999 60.8408 17.9854 61.2812C17.8708 61.7217 17.7061 62.0762 17.4912 62.3447C17.2764 62.6133 17.0168 62.8084 16.7124 62.9302C16.4116 63.0483 16.0715 63.1074 15.6919 63.1074C15.3911 63.1074 15.1136 63.0698 14.8594 62.9946C14.6051 62.9194 14.376 62.7995 14.1719 62.6348C13.9714 62.4665 13.7995 62.248 13.6562 61.9795C13.513 61.7109 13.4038 61.3851 13.3286 61.002C13.2534 60.6188 13.2158 60.1712 13.2158 59.6592V58.4668C13.2158 57.8258 13.2731 57.2887 13.3877 56.8555C13.5059 56.4222 13.6724 56.0749 13.8872 55.8135C14.1021 55.5485 14.3599 55.3587 14.6606 55.2441C14.965 55.1296 15.3052 55.0723 15.6812 55.0723C15.9855 55.0723 16.2648 55.1099 16.519 55.1851C16.7769 55.2567 17.006 55.373 17.2065 55.5342C17.4071 55.6917 17.5771 55.903 17.7168 56.168C17.86 56.4294 17.9692 56.7498 18.0444 57.1294C18.1196 57.509 18.1572 57.9548 18.1572 58.4668ZM17.1582 59.8203V58.3003C17.1582 57.9494 17.1367 57.6414 17.0938 57.3765C17.0544 57.1079 16.9953 56.8787 16.9165 56.689C16.8377 56.4992 16.7375 56.3452 16.6157 56.2271C16.4976 56.1089 16.3597 56.0229 16.2021 55.9692C16.0482 55.9119 15.8745 55.8833 15.6812 55.8833C15.4448 55.8833 15.2354 55.9281 15.0527 56.0176C14.8701 56.1035 14.7161 56.2414 14.5908 56.4312C14.4691 56.6209 14.376 56.8698 14.3115 57.1777C14.2471 57.4857 14.2148 57.8599 14.2148 58.3003V59.8203C14.2148 60.1712 14.2345 60.481 14.2739 60.7495C14.3169 61.0181 14.3796 61.2508 14.4619 61.4478C14.5443 61.6411 14.6445 61.8005 14.7627 61.9258C14.8809 62.0511 15.0169 62.1442 15.1709 62.2051C15.3285 62.2624 15.5021 62.291 15.6919 62.291C15.9354 62.291 16.1484 62.2445 16.3311 62.1514C16.5137 62.0583 16.6659 61.9132 16.7876 61.7163C16.9129 61.5158 17.006 61.2598 17.0669 60.9482C17.1278 60.6331 17.1582 60.2572 17.1582 59.8203ZM20.542 54.75V63H19.543V54.75H20.542ZM24.0923 57.1885L21.5571 59.9009L20.1392 61.3726L20.0586 60.3145L21.0737 59.1006L22.8784 57.1885H24.0923ZM23.1846 63L21.1113 60.2285L21.627 59.3423L24.3555 63H23.1846Z" fill="white"/>
<path d="M4.13867 2.13672V10H3.14502V3.37744L1.1416 4.10791V3.21094L3.98291 2.13672H4.13867ZM7.646 2.17969H8.65039L11.2124 8.55518L13.769 2.17969H14.7788L11.5991 10H10.8149L7.646 2.17969ZM7.31836 2.17969H8.20459L8.34961 6.94922V10H7.31836V2.17969ZM14.2148 2.17969H15.1011V10H14.0698V6.94922L14.2148 2.17969ZM17.8511 1.75V10H16.8521V1.75H17.8511ZM20.4399 5.4292V10H19.4463V4.18848H20.3862L20.4399 5.4292ZM20.2036 6.87402L19.79 6.85791C19.7936 6.46045 19.8527 6.09342 19.9673 5.75684C20.0819 5.41667 20.243 5.12126 20.4507 4.87061C20.6584 4.61995 20.9054 4.4266 21.1919 4.29053C21.4819 4.15088 21.8024 4.08105 22.1533 4.08105C22.4398 4.08105 22.6976 4.12044 22.9268 4.19922C23.1559 4.27441 23.3511 4.39616 23.5122 4.56445C23.6769 4.73275 23.8022 4.95117 23.8882 5.21973C23.9741 5.4847 24.0171 5.80876 24.0171 6.19189V10H23.0181V6.18115C23.0181 5.87679 22.9733 5.6333 22.8838 5.45068C22.7943 5.26449 22.6636 5.13021 22.4917 5.04785C22.3198 4.96191 22.1086 4.91895 21.8579 4.91895C21.6108 4.91895 21.3853 4.97087 21.1812 5.07471C20.9806 5.17855 20.807 5.32178 20.6602 5.50439C20.5169 5.68701 20.4041 5.89648 20.3218 6.13281C20.243 6.36556 20.2036 6.61263 20.2036 6.87402Z" fill="white"/>
<path d="M51.094 164.5H832.777" stroke="#557D9C" stroke-linecap="square"/>
<path d="M51.094 8.5H832.777" stroke="#557D9C" stroke-linecap="square"/>
<path d="M51.094 60.5H832.777" stroke="#557D9C" stroke-linecap="square"/>
<path d="M51.094 112.5H832.777" stroke="#557D9C" stroke-linecap="square"/>
<path opacity="0.207122" fill-rule="evenodd" clip-rule="evenodd" d="M51.0938 0C51.0938 0 78.0799 45.1465 136.674 45.1465C172.587 45.1465 212.48 -4.72485 257.403 5.64331C287.967 12.6974 298.976 94.9117 352.152 94.5254C376.324 94.3499 379.172 52.2006 446.902 52.2006C488.164 52.2006 561.582 19.0545 603.544 35.2707C636.401 47.9681 691.675 127.9 753.034 112.543C779.859 105.829 832.776 0 832.776 0V165.067H51.0938V0Z" fill="#4CE1B6"/>
<mask id="mask0_521_520" style="mask-type:alpha" maskUnits="userSpaceOnUse" x="51" y="0" width="782" height="166">
<path fill-rule="evenodd" clip-rule="evenodd" d="M51.0938 0C51.0938 0 78.0799 45.1465 136.674 45.1465C172.587 45.1465 212.48 -4.72485 257.403 5.64331C287.967 12.6974 298.976 94.9117 352.152 94.5254C376.324 94.3499 379.172 52.2006 446.902 52.2006C488.164 52.2006 561.582 19.0545 603.544 35.2707C636.401 47.9681 691.675 127.9 753.034 112.543C779.859 105.829 832.776 0 832.776 0V165.067H51.0938V0Z" fill="white"/>
</mask>
<g mask="url(#mask0_521_520)">
</g>
<path opacity="0.458265" fill-rule="evenodd" clip-rule="evenodd" d="M51.0937 106C51.0937 106 77.747 62 136.341 62C172.254 62 201.092 93.651 246.016 101C276.58 106 302.015 73.2738 355.192 73C379.364 72.8756 392.152 32 459.882 32C501.144 32 561.177 83.5394 603.456 95C658.792 110 687.049 84.5811 757.998 79C783.423 77 832.776 98.5 832.776 98.5V165H51.0937V106Z" fill="#A9D3F7"/>
<mask id="mask1_521_520" style="mask-type:alpha" maskUnits="userSpaceOnUse" x="51" y="32" width="782" height="133">
<path fill-rule="evenodd" clip-rule="evenodd" d="M51.0937 106C51.0937 106 77.747 62 136.341 62C172.254 62 201.092 93.651 246.016 101C276.58 106 302.015 73.2738 355.192 73C379.364 72.8756 392.152 32 459.882 32C501.144 32 561.177 83.5394 603.456 95C658.792 110 687.049 84.5811 757.998 79C783.423 77 832.776 98.5 832.776 98.5V165H51.0937V106Z" fill="white"/>
</mask>
<g mask="url(#mask1_521_520)">
<path opacity="0.7" d="M50.5715 108.289C50.6168 108.219 50.6726 108.132 50.7388 108.031C50.9537 107.703 51.2788 107.218 51.7146 106.599C52.5862 105.36 53.9004 103.584 55.6612 101.449C59.1835 97.1785 64.4886 91.4798 71.6092 85.7807C85.8468 74.3855 107.326 63 136.343 63C154.022 63 170.002 70.7879 187.347 79.6349C188.058 79.998 188.772 80.3627 189.489 80.7287C206.171 89.252 224.146 98.4354 245.856 101.987C260.555 104.391 274.078 98.2583 289.526 91.2523C290.521 90.8009 291.525 90.3458 292.537 89.8892C309.338 82.31 328.831 74.1357 355.199 74C361.54 73.9673 367.074 71.2559 372.787 67.368C375.599 65.4542 378.485 63.2329 381.544 60.8785L381.692 60.7652C384.813 58.363 388.127 55.817 391.776 53.2737C406.327 43.1327 426.26 33 459.883 33C470.007 33 481.354 36.1655 493.396 41.1559C505.428 46.1425 518.078 52.918 530.799 60.0738C534.699 62.268 538.608 64.4991 542.507 66.7243C551.303 71.7448 560.047 76.7356 568.524 81.2059C580.759 87.6584 592.517 93.0705 603.196 95.9652C631.084 103.525 652.163 100.889 675.095 95.6932C680.057 94.5688 685.102 93.3259 690.321 92.0404C709.205 87.3883 730.358 82.1774 758.078 79.9969C764.288 79.5084 772.122 80.5154 780.434 82.3362C788.73 84.1537 797.436 86.7667 805.364 89.4473C813.291 92.1272 820.427 94.8702 825.582 96.9434C828.159 97.9799 830.239 98.8485 831.675 99.4577C832.378 99.7557 832.926 99.9916 833.302 100.155V167H50.5715V108.289Z" stroke="#70BBFD" stroke-width="2"/>
</g>
</svg>
