<svg width="14" height="14" viewBox="0 0 14 14" fill="none" xmlns="http://www.w3.org/2000/svg">
<path d="M7.00004 3.50004V5.25004L9.33337 2.91671L7.00004 0.583374V2.33337C5.76236 2.33337 4.57538 2.82504 3.70021 3.70021C2.82504 4.57538 2.33337 5.76236 2.33337 7.00004C2.33337 7.91587 2.60171 8.76754 3.05671 9.48504L3.90837 8.63337C3.64587 8.14921 3.50004 7.58337 3.50004 7.00004C3.50004 6.07178 3.86879 5.18154 4.52517 4.52517C5.18154 3.86879 6.07178 3.50004 7.00004 3.50004V3.50004ZM10.9434 4.51504L10.0917 5.36671C10.3484 5.85671 10.5 6.41671 10.5 7.00004C10.5 7.9283 10.1313 8.81854 9.47491 9.47491C8.81854 10.1313 7.9283 10.5 7.00004 10.5V8.75004L4.66671 11.0834L7.00004 13.4167V11.6667C8.23772 11.6667 9.4247 11.175 10.2999 10.2999C11.175 9.4247 11.6667 8.23772 11.6667 7.00004C11.6667 6.08421 11.3984 5.23254 10.9434 4.51504Z" fill="white"/>
</svg>
