<svg width="18" height="12" viewBox="0 0 18 12" fill="none" xmlns="http://www.w3.org/2000/svg">
<path d="M9 4C8.36719 4 7.82812 4.22266 7.38281 4.66797C6.96094 5.08984 6.75 5.61719 6.75 6.25C6.75 6.88281 6.96094 7.42188 7.38281 7.86719C7.82812 8.28906 8.36719 8.5 9 8.5C9.63281 8.5 10.1602 8.28906 10.582 7.86719C11.0273 7.42188 11.25 6.88281 11.25 6.25C11.25 5.61719 11.0273 5.08984 10.582 4.66797C10.1602 4.22266 9.63281 4 9 4ZM9 10.0117C8.32031 10.0117 7.6875 9.84766 7.10156 9.51953C6.53906 9.16797 6.08203 8.71094 5.73047 8.14844C5.40234 7.5625 5.23828 6.92969 5.23828 6.25C5.23828 5.57031 5.40234 4.94922 5.73047 4.38672C6.08203 3.80078 6.53906 3.34375 7.10156 3.01562C7.6875 2.66406 8.32031 2.48828 9 2.48828C9.67969 2.48828 10.3008 2.66406 10.8633 3.01562C11.4492 3.34375 11.9062 3.80078 12.2344 4.38672C12.5859 4.94922 12.7617 5.57031 12.7617 6.25C12.7617 6.92969 12.5859 7.5625 12.2344 8.14844C11.9062 8.71094 11.4492 9.16797 10.8633 9.51953C10.3008 9.84766 9.67969 10.0117 9 10.0117ZM9 0.625C7.14844 0.625 5.47266 1.15234 3.97266 2.20703C2.47266 3.23828 1.39453 4.58594 0.738281 6.25C1.39453 7.91406 2.47266 9.27344 3.97266 10.3281C5.47266 11.3594 7.14844 11.875 9 11.875C10.8516 11.875 12.5273 11.3594 14.0273 10.3281C15.5273 9.27344 16.6055 7.91406 17.2617 6.25C16.6055 4.58594 15.5273 3.23828 14.0273 2.20703C12.5273 1.15234 10.8516 0.625 9 0.625Z" fill="white"/>
</svg>
