<svg width="20" height="16" viewBox="0 0 20 16" fill="none" xmlns="http://www.w3.org/2000/svg">
<path d="M20 5.15909V14.1818C20 14.6818 19.8251 15.1098 19.4754 15.4659C19.1257 15.822 18.7054 16 18.2143 16H1.78571C1.29464 16 0.874256 15.822 0.524554 15.4659C0.174851 15.1098 0 14.6818 0 14.1818V5.15909C0.327381 5.5303 0.703125 5.85985 1.12723 6.14773C3.82068 8.01136 5.66964 9.31818 6.67411 10.0682C7.09821 10.3864 7.44234 10.6345 7.70647 10.8125C7.97061 10.9905 8.32217 11.1723 8.76116 11.358C9.20015 11.5436 9.60937 11.6364 9.98884 11.6364H10.0112C10.3906 11.6364 10.7999 11.5436 11.2388 11.358C11.6778 11.1723 12.0294 10.9905 12.2935 10.8125C12.5577 10.6345 12.9018 10.3864 13.3259 10.0682C14.5908 9.13636 16.4435 7.82955 18.8839 6.14773C19.308 5.85227 19.6801 5.52273 20 5.15909ZM20 1.81818C20 2.41667 19.8177 2.98864 19.4531 3.53409C19.0885 4.07955 18.6347 4.54545 18.0915 4.93182C15.2939 6.90909 13.5528 8.14015 12.8683 8.625C12.7939 8.67803 12.6358 8.79356 12.394 8.97159C12.1522 9.14962 11.9513 9.29356 11.7913 9.40341C11.6313 9.51326 11.4379 9.63636 11.2109 9.77273C10.984 9.90909 10.7701 10.0114 10.5692 10.0795C10.3683 10.1477 10.1823 10.1818 10.0112 10.1818H9.98884C9.81771 10.1818 9.6317 10.1477 9.4308 10.0795C9.22991 10.0114 9.016 9.90909 8.78906 9.77273C8.56213 9.63636 8.36868 9.51326 8.20871 9.40341C8.04874 9.29356 7.84784 9.14962 7.60603 8.97159C7.36421 8.79356 7.2061 8.67803 7.1317 8.625C6.45461 8.14015 5.47991 7.44886 4.20759 6.55114C2.93527 5.65341 2.17262 5.11364 1.91964 4.93182C1.45833 4.61364 1.02307 4.17614 0.613839 3.61932C0.204613 3.0625 0 2.54545 0 2.06818C0 1.47727 0.15439 0.984849 0.46317 0.590909C0.771949 0.19697 1.2128 0 1.78571 0H18.2143C18.6979 0 19.1164 0.17803 19.4699 0.534091C19.8233 0.890152 20 1.31818 20 1.81818Z" fill="#BCBCBC"/>
</svg>