<svg width="32" height="32" viewBox="0 0 32 32" fill="none" xmlns="http://www.w3.org/2000/svg">
    <path fill-rule="evenodd" clip-rule="evenodd"
        d="M7.00092 18.1784V17.915C7.03682 17.1356 7.2689 16.3806 7.67322 15.7275C8.3462 14.9431 8.8069 13.9818 9.00697 12.9445C9.00697 12.1429 9.00697 11.3297 9.07204 10.528C9.40818 6.66848 12.954 4 16.4565 4H16.5433C20.0457 4 23.5915 6.66848 23.9385 10.528C24.0035 11.3297 23.9385 12.1429 23.9927 12.9445C24.1954 13.9842 24.6557 14.9484 25.3265 15.739C25.7338 16.3862 25.9662 17.1386 25.9988 17.915V18.167C26.023 19.214 25.688 20.235 25.0554 21.0416C24.2196 21.9848 23.0853 22.5715 21.8674 22.6907C18.2961 23.1031 14.6928 23.1031 11.1215 22.6907C9.90492 22.5664 8.77232 21.9804 7.93347 21.0416C7.3107 20.2344 6.98015 19.2195 7.00092 18.1784Z"
        stroke="#474747" stroke-width="1.5" stroke-linecap="round" stroke-linejoin="round" />
    <circle cx="23.5" cy="8.5" r="7.75" fill="#0071CA" stroke="white" stroke-width="1.5" />
    <path
        d="M24.104 11C24.0507 11 24.0027 10.9813 23.96 10.944C23.9227 10.9013 23.904 10.8533 23.904 10.8V9.92H21.424C21.3707 9.92 21.3227 9.90133 21.28 9.864C21.2427 9.82133 21.224 9.77333 21.224 9.72V8.912C21.224 8.832 21.2533 8.752 21.312 8.672L23.632 5.536C23.7067 5.44533 23.8053 5.4 23.928 5.4H25.144C25.2027 5.4 25.2507 5.41867 25.288 5.456C25.3307 5.49333 25.352 5.54133 25.352 5.6V8.68H26.056C26.12 8.68 26.1707 8.70133 26.208 8.744C26.2453 8.78133 26.264 8.82667 26.264 8.88V9.72C26.264 9.77333 26.2453 9.82133 26.208 9.864C26.1707 9.90133 26.1227 9.92 26.064 9.92H25.352V10.8C25.352 10.8587 25.3307 10.9067 25.288 10.944C25.2507 10.9813 25.2027 11 25.144 11H24.104ZM22.648 8.736H23.936V6.936L22.648 8.736Z"
        fill="white" />
    <path
        d="M14 26C14.5187 26.5457 15.2805 26.899 16.1167 26.9815C16.953 27.0639 17.7947 26.8689 18.4557 26.4395C18.6589 26.3125 18.8418 26.1648 19 26"
        stroke="#474747" stroke-width="1.5" stroke-linecap="round" stroke-linejoin="round" />
</svg>