<svg width="20" height="20" viewBox="0 0 20 20" fill="none" xmlns="http://www.w3.org/2000/svg">
<path d="M10 0C4.4775 0 0 4.4775 0 10C0 15.5225 4.4775 20 10 20C15.5225 20 20 15.5225 20 10C20 4.4775 15.5225 0 10 0ZM14.6325 7.23375L9.8425 14.555C9.84125 14.5563 9.83875 14.5575 9.83875 14.5588C9.81375 14.5963 9.8 14.6388 9.76875 14.6738C9.725 14.7213 9.66875 14.7463 9.61875 14.7825C9.60625 14.7913 9.59375 14.8013 9.58 14.81C9.5025 14.8588 9.4225 14.8913 9.335 14.9125C9.30625 14.92 9.28 14.9275 9.25 14.9325C9.18038 14.9421 9.10983 14.9429 9.04 14.935C8.99068 14.9319 8.94173 14.9244 8.89375 14.9125C8.84425 14.8976 8.79614 14.8783 8.75 14.855C8.71 14.8363 8.6675 14.8313 8.63 14.8075C8.6025 14.79 8.5875 14.7625 8.56375 14.7413C8.55375 14.7325 8.54125 14.73 8.53125 14.7213L5.7425 12.1425C5.5772 11.9838 5.48076 11.7665 5.47392 11.5375C5.46708 11.3084 5.55038 11.0858 5.70592 10.9175C5.86145 10.7492 6.07681 10.6486 6.3057 10.6374C6.53459 10.6262 6.75875 10.7052 6.93 10.8575L8.94875 12.725L13.1675 6.27625C13.2945 6.08198 13.4934 5.9461 13.7206 5.89852C13.9477 5.85093 14.1845 5.89553 14.3788 6.0225C14.573 6.14947 14.7089 6.34842 14.7565 6.57557C14.8041 6.80273 14.7595 7.03948 14.6325 7.23375Z" fill="#0071CA"/>
</svg>
