<svg width="13" height="13" viewBox="0 0 13 13" fill="none" xmlns="http://www.w3.org/2000/svg">
    <path fill-rule="evenodd" clip-rule="evenodd"
        d="M5.525 11.05C2.47363 11.05 0 8.57637 0 5.525C0 2.47363 2.47363 0 5.525 0C8.57637 0 11.05 2.47363 11.05 5.525C11.05 6.81647 10.6069 8.00444 9.86442 8.94518L12.8096 11.8904C13.0635 12.1442 13.0635 12.5558 12.8096 12.8096C12.5558 13.0635 12.1442 13.0635 11.8904 12.8096L8.94518 9.86442C8.00444 10.6069 6.81647 11.05 5.525 11.05ZM8.55383 8.47064C8.5389 8.48312 8.5244 8.49636 8.51038 8.51038C8.49636 8.5244 8.48312 8.5389 8.47064 8.55383C7.70961 9.2941 6.67054 9.75 5.525 9.75C3.1916 9.75 1.3 7.8584 1.3 5.525C1.3 3.1916 3.1916 1.3 5.525 1.3C7.8584 1.3 9.75 3.1916 9.75 5.525C9.75 6.67054 9.2941 7.70961 8.55383 8.47064Z"
        fill="#0071CA" />
    <mask id="mask0_299_1678" style="mask-type:alpha" maskUnits="userSpaceOnUse" x="0" y="0"
        width="13" height="13">
        <path fill-rule="evenodd" clip-rule="evenodd"
            d="M5.525 11.05C2.47363 11.05 0 8.57637 0 5.525C0 2.47363 2.47363 0 5.525 0C8.57637 0 11.05 2.47363 11.05 5.525C11.05 6.81647 10.6069 8.00444 9.86442 8.94518L12.8096 11.8904C13.0635 12.1442 13.0635 12.5558 12.8096 12.8096C12.5558 13.0635 12.1442 13.0635 11.8904 12.8096L8.94518 9.86442C8.00444 10.6069 6.81647 11.05 5.525 11.05ZM8.55383 8.47064C8.5389 8.48312 8.5244 8.49636 8.51038 8.51038C8.49636 8.5244 8.48312 8.5389 8.47064 8.55383C7.70961 9.2941 6.67054 9.75 5.525 9.75C3.1916 9.75 1.3 7.8584 1.3 5.525C1.3 3.1916 3.1916 1.3 5.525 1.3C7.8584 1.3 9.75 3.1916 9.75 5.525C9.75 6.67054 9.2941 7.70961 8.55383 8.47064Z"
            fill="white" />
    </mask>
    <g mask="url(#mask0_299_1678)">
    </g>
</svg>