<svg width="295" height="245" viewBox="0 0 295 245" fill="none" xmlns="http://www.w3.org/2000/svg">
<path d="M274.363 10.2341V11.3591H268.645V10.3923L271.422 7.36304C271.727 7.01929 271.967 6.72241 272.143 6.47241C272.318 6.22241 272.441 5.9978 272.512 5.79858C272.586 5.59546 272.623 5.39819 272.623 5.20679C272.623 4.93726 272.572 4.70093 272.471 4.4978C272.373 4.29077 272.229 4.12866 272.037 4.01147C271.846 3.89038 271.613 3.82983 271.34 3.82983C271.023 3.82983 270.758 3.89819 270.543 4.03491C270.328 4.17163 270.166 4.36108 270.057 4.60327C269.947 4.84155 269.893 5.11499 269.893 5.42358H268.48C268.48 4.92749 268.594 4.47437 268.82 4.06421C269.047 3.65015 269.375 3.32202 269.805 3.07983C270.234 2.83374 270.752 2.71069 271.357 2.71069C271.928 2.71069 272.412 2.8064 272.811 2.9978C273.209 3.18921 273.512 3.46069 273.719 3.81226C273.93 4.16382 274.035 4.57983 274.035 5.0603C274.035 5.32593 273.992 5.5896 273.906 5.85132C273.82 6.11304 273.697 6.37476 273.537 6.63647C273.381 6.89429 273.195 7.15405 272.98 7.41577C272.766 7.67358 272.529 7.9353 272.271 8.20093L270.426 10.2341H274.363ZM276.947 7.39233L275.822 7.11694L276.285 2.82788H280.885V4.02319H277.457L277.223 6.11499C277.355 6.03687 277.539 5.96069 277.773 5.88647C278.008 5.80835 278.275 5.76929 278.576 5.76929C278.979 5.76929 279.338 5.83569 279.654 5.96851C279.975 6.09741 280.246 6.28687 280.469 6.53687C280.691 6.78296 280.861 7.08374 280.979 7.43921C281.096 7.79077 281.154 8.18726 281.154 8.62866C281.154 9.02319 281.096 9.39233 280.979 9.73608C280.865 10.0798 280.693 10.3826 280.463 10.6443C280.232 10.906 279.941 11.1111 279.59 11.2595C279.242 11.4041 278.83 11.4763 278.354 11.4763C277.998 11.4763 277.656 11.4255 277.328 11.324C277.004 11.2185 276.713 11.0642 276.455 10.8611C276.197 10.6541 275.99 10.4001 275.834 10.0994C275.678 9.79468 275.588 9.44507 275.564 9.05054H276.947C276.982 9.32788 277.059 9.56421 277.176 9.75952C277.297 9.95093 277.457 10.0974 277.656 10.199C277.855 10.3005 278.086 10.3513 278.348 10.3513C278.586 10.3513 278.791 10.3103 278.963 10.2283C279.135 10.1423 279.277 10.0212 279.391 9.86499C279.508 9.70483 279.594 9.51733 279.648 9.30249C279.707 9.08765 279.736 8.84937 279.736 8.58765C279.736 8.33765 279.703 8.10913 279.637 7.9021C279.574 7.69507 279.479 7.51538 279.35 7.36304C279.225 7.21069 279.066 7.09351 278.875 7.01147C278.684 6.92554 278.463 6.88257 278.213 6.88257C277.877 6.88257 277.619 6.9314 277.439 7.02905C277.264 7.12671 277.1 7.2478 276.947 7.39233ZM282.227 4.91968V4.46851C282.227 4.14429 282.297 3.84937 282.438 3.58374C282.578 3.31812 282.783 3.10522 283.053 2.94507C283.322 2.78491 283.646 2.70483 284.025 2.70483C284.416 2.70483 284.744 2.78491 285.01 2.94507C285.279 3.10522 285.484 3.31812 285.625 3.58374C285.766 3.84937 285.836 4.14429 285.836 4.46851V4.91968C285.836 5.23608 285.766 5.5271 285.625 5.79272C285.488 6.05835 285.285 6.27124 285.016 6.4314C284.75 6.59155 284.424 6.67163 284.037 6.67163C283.654 6.67163 283.326 6.59155 283.053 6.4314C282.783 6.27124 282.578 6.05835 282.438 5.79272C282.297 5.5271 282.227 5.23608 282.227 4.91968ZM283.205 4.46851V4.91968C283.205 5.07593 283.234 5.22437 283.293 5.36499C283.355 5.50562 283.449 5.6189 283.574 5.70483C283.699 5.79077 283.854 5.83374 284.037 5.83374C284.225 5.83374 284.377 5.79077 284.494 5.70483C284.615 5.6189 284.705 5.50562 284.764 5.36499C284.822 5.22437 284.852 5.07593 284.852 4.91968V4.46851C284.852 4.30835 284.82 4.15796 284.758 4.01733C284.699 3.8728 284.609 3.75757 284.488 3.67163C284.367 3.58569 284.213 3.54272 284.025 3.54272C283.846 3.54272 283.693 3.58569 283.568 3.67163C283.447 3.75757 283.355 3.8728 283.293 4.01733C283.234 4.15796 283.205 4.30835 283.205 4.46851ZM286.34 9.72437V9.26733C286.34 8.94702 286.41 8.65405 286.551 8.38843C286.695 8.1228 286.902 7.90991 287.172 7.74976C287.441 7.5896 287.766 7.50952 288.145 7.50952C288.535 7.50952 288.863 7.5896 289.129 7.74976C289.398 7.90991 289.602 8.1228 289.738 8.38843C289.879 8.65405 289.949 8.94702 289.949 9.26733V9.72437C289.949 10.0447 289.879 10.3376 289.738 10.6033C289.602 10.8689 289.4 11.0818 289.135 11.2419C288.869 11.4021 288.545 11.4822 288.162 11.4822C287.775 11.4822 287.445 11.4021 287.172 11.2419C286.902 11.0818 286.695 10.8689 286.551 10.6033C286.41 10.3376 286.34 10.0447 286.34 9.72437ZM287.324 9.26733V9.72437C287.324 9.88062 287.355 10.0291 287.418 10.1697C287.484 10.3103 287.58 10.4255 287.705 10.5154C287.83 10.6013 287.98 10.6443 288.156 10.6443C288.355 10.6443 288.516 10.6013 288.637 10.5154C288.758 10.4255 288.844 10.3123 288.895 10.1755C288.949 10.0349 288.977 9.88452 288.977 9.72437V9.26733C288.977 9.10718 288.945 8.95679 288.883 8.81616C288.824 8.67554 288.732 8.56226 288.607 8.47632C288.486 8.39038 288.332 8.34741 288.145 8.34741C287.961 8.34741 287.809 8.39038 287.688 8.47632C287.566 8.56226 287.475 8.67554 287.412 8.81616C287.354 8.95679 287.324 9.10718 287.324 9.26733ZM288.496 4.04663L284.33 10.7146L283.609 10.2986L287.775 3.63062L288.496 4.04663Z" fill="#444444"/>
<path d="M7.18799 13.875V15H1.46924V14.0332L4.24658 11.0039C4.55127 10.6602 4.7915 10.3633 4.96729 10.1133C5.14307 9.86328 5.26611 9.63867 5.33643 9.43945C5.41064 9.23633 5.44775 9.03906 5.44775 8.84766C5.44775 8.57812 5.39697 8.3418 5.29541 8.13867C5.19775 7.93164 5.05322 7.76953 4.86182 7.65234C4.67041 7.53125 4.43799 7.4707 4.16455 7.4707C3.84814 7.4707 3.58252 7.53906 3.36768 7.67578C3.15283 7.8125 2.99072 8.00195 2.88135 8.24414C2.77197 8.48242 2.71729 8.75586 2.71729 9.06445H1.30518C1.30518 8.56836 1.41846 8.11523 1.64502 7.70508C1.87158 7.29102 2.19971 6.96289 2.62939 6.7207C3.05908 6.47461 3.57666 6.35156 4.18213 6.35156C4.75244 6.35156 5.23682 6.44727 5.63525 6.63867C6.03369 6.83008 6.33643 7.10156 6.54346 7.45312C6.75439 7.80469 6.85986 8.2207 6.85986 8.70117C6.85986 8.9668 6.81689 9.23047 6.73096 9.49219C6.64502 9.75391 6.52197 10.0156 6.36182 10.2773C6.20557 10.5352 6.02002 10.7949 5.80518 11.0566C5.59033 11.3145 5.354 11.5762 5.09619 11.8418L3.25049 13.875H7.18799ZM9.77197 11.0332L8.64697 10.7578L9.10986 6.46875H13.7095V7.66406H10.2817L10.0474 9.75586C10.1802 9.67773 10.3638 9.60156 10.5981 9.52734C10.8325 9.44922 11.1001 9.41016 11.4009 9.41016C11.8032 9.41016 12.1626 9.47656 12.479 9.60938C12.7993 9.73828 13.0708 9.92773 13.2935 10.1777C13.5161 10.4238 13.686 10.7246 13.8032 11.0801C13.9204 11.4316 13.979 11.8281 13.979 12.2695C13.979 12.6641 13.9204 13.0332 13.8032 13.377C13.6899 13.7207 13.5181 14.0234 13.2876 14.2852C13.0571 14.5469 12.7661 14.752 12.4146 14.9004C12.0669 15.0449 11.6548 15.1172 11.1782 15.1172C10.8228 15.1172 10.481 15.0664 10.1528 14.9648C9.82861 14.8594 9.5376 14.7051 9.27979 14.502C9.02197 14.2949 8.81494 14.041 8.65869 13.7402C8.50244 13.4355 8.4126 13.0859 8.38916 12.6914H9.77197C9.80713 12.9688 9.8833 13.2051 10.0005 13.4004C10.1216 13.5918 10.2817 13.7383 10.481 13.8398C10.6802 13.9414 10.9106 13.9922 11.1724 13.9922C11.4106 13.9922 11.6157 13.9512 11.7876 13.8691C11.9595 13.7832 12.1021 13.6621 12.2153 13.5059C12.3325 13.3457 12.4185 13.1582 12.4731 12.9434C12.5317 12.7285 12.561 12.4902 12.561 12.2285C12.561 11.9785 12.5278 11.75 12.4614 11.543C12.3989 11.3359 12.3032 11.1562 12.1743 11.0039C12.0493 10.8516 11.8911 10.7344 11.6997 10.6523C11.5083 10.5664 11.2876 10.5234 11.0376 10.5234C10.7017 10.5234 10.4438 10.5723 10.2642 10.6699C10.0884 10.7676 9.92432 10.8887 9.77197 11.0332ZM15.0513 8.56055V8.10938C15.0513 7.78516 15.1216 7.49023 15.2622 7.22461C15.4028 6.95898 15.6079 6.74609 15.8774 6.58594C16.147 6.42578 16.4712 6.3457 16.8501 6.3457C17.2407 6.3457 17.5688 6.42578 17.8345 6.58594C18.104 6.74609 18.3091 6.95898 18.4497 7.22461C18.5903 7.49023 18.6606 7.78516 18.6606 8.10938V8.56055C18.6606 8.87695 18.5903 9.16797 18.4497 9.43359C18.313 9.69922 18.1099 9.91211 17.8403 10.0723C17.5747 10.2324 17.2485 10.3125 16.8618 10.3125C16.479 10.3125 16.1509 10.2324 15.8774 10.0723C15.6079 9.91211 15.4028 9.69922 15.2622 9.43359C15.1216 9.16797 15.0513 8.87695 15.0513 8.56055ZM16.0298 8.10938V8.56055C16.0298 8.7168 16.0591 8.86523 16.1177 9.00586C16.1802 9.14648 16.2739 9.25977 16.3989 9.3457C16.5239 9.43164 16.6782 9.47461 16.8618 9.47461C17.0493 9.47461 17.2017 9.43164 17.3188 9.3457C17.4399 9.25977 17.5298 9.14648 17.5884 9.00586C17.647 8.86523 17.6763 8.7168 17.6763 8.56055V8.10938C17.6763 7.94922 17.645 7.79883 17.5825 7.6582C17.5239 7.51367 17.4341 7.39844 17.313 7.3125C17.1919 7.22656 17.0376 7.18359 16.8501 7.18359C16.6704 7.18359 16.5181 7.22656 16.3931 7.3125C16.272 7.39844 16.1802 7.51367 16.1177 7.6582C16.0591 7.79883 16.0298 7.94922 16.0298 8.10938ZM19.1646 13.3652V12.9082C19.1646 12.5879 19.2349 12.2949 19.3755 12.0293C19.52 11.7637 19.7271 11.5508 19.9966 11.3906C20.2661 11.2305 20.5903 11.1504 20.9692 11.1504C21.3599 11.1504 21.688 11.2305 21.9536 11.3906C22.2231 11.5508 22.4263 11.7637 22.563 12.0293C22.7036 12.2949 22.7739 12.5879 22.7739 12.9082V13.3652C22.7739 13.6855 22.7036 13.9785 22.563 14.2441C22.4263 14.5098 22.2251 14.7227 21.9595 14.8828C21.6938 15.043 21.3696 15.123 20.9868 15.123C20.6001 15.123 20.27 15.043 19.9966 14.8828C19.7271 14.7227 19.52 14.5098 19.3755 14.2441C19.2349 13.9785 19.1646 13.6855 19.1646 13.3652ZM20.1489 12.9082V13.3652C20.1489 13.5215 20.1802 13.6699 20.2427 13.8105C20.3091 13.9512 20.4048 14.0664 20.5298 14.1562C20.6548 14.2422 20.8052 14.2852 20.981 14.2852C21.1802 14.2852 21.3403 14.2422 21.4614 14.1562C21.5825 14.0664 21.6685 13.9531 21.7192 13.8164C21.7739 13.6758 21.8013 13.5254 21.8013 13.3652V12.9082C21.8013 12.748 21.77 12.5977 21.7075 12.457C21.6489 12.3164 21.5571 12.2031 21.4321 12.1172C21.311 12.0312 21.1567 11.9883 20.9692 11.9883C20.7856 11.9883 20.6333 12.0312 20.5122 12.1172C20.3911 12.2031 20.2993 12.3164 20.2368 12.457C20.1782 12.5977 20.1489 12.748 20.1489 12.9082ZM21.3208 7.6875L17.1548 14.3555L16.4341 13.9395L20.6001 7.27148L21.3208 7.6875Z" fill="#444444"/>
<path d="M7.36328 236.474V237.599H1.64453V236.632L4.42188 233.603C4.72656 233.259 4.9668 232.962 5.14258 232.712C5.31836 232.462 5.44141 232.237 5.51172 232.038C5.58594 231.835 5.62305 231.638 5.62305 231.446C5.62305 231.177 5.57227 230.94 5.4707 230.737C5.37305 230.53 5.22852 230.368 5.03711 230.251C4.8457 230.13 4.61328 230.069 4.33984 230.069C4.02344 230.069 3.75781 230.138 3.54297 230.274C3.32812 230.411 3.16602 230.601 3.05664 230.843C2.94727 231.081 2.89258 231.354 2.89258 231.663H1.48047C1.48047 231.167 1.59375 230.714 1.82031 230.304C2.04688 229.89 2.375 229.562 2.80469 229.319C3.23438 229.073 3.75195 228.95 4.35742 228.95C4.92773 228.95 5.41211 229.046 5.81055 229.237C6.20898 229.429 6.51172 229.7 6.71875 230.052C6.92969 230.403 7.03516 230.819 7.03516 231.3C7.03516 231.565 6.99219 231.829 6.90625 232.091C6.82031 232.353 6.69727 232.614 6.53711 232.876C6.38086 233.134 6.19531 233.394 5.98047 233.655C5.76562 233.913 5.5293 234.175 5.27148 234.44L3.42578 236.474H7.36328ZM9.94727 233.632L8.82227 233.356L9.28516 229.067H13.8848V230.263H10.457L10.2227 232.354C10.3555 232.276 10.5391 232.2 10.7734 232.126C11.0078 232.048 11.2754 232.009 11.5762 232.009C11.9785 232.009 12.3379 232.075 12.6543 232.208C12.9746 232.337 13.2461 232.526 13.4688 232.776C13.6914 233.022 13.8613 233.323 13.9785 233.679C14.0957 234.03 14.1543 234.427 14.1543 234.868C14.1543 235.263 14.0957 235.632 13.9785 235.976C13.8652 236.319 13.6934 236.622 13.4629 236.884C13.2324 237.146 12.9414 237.351 12.5898 237.499C12.2422 237.644 11.8301 237.716 11.3535 237.716C10.998 237.716 10.6562 237.665 10.3281 237.563C10.0039 237.458 9.71289 237.304 9.45508 237.101C9.19727 236.894 8.99023 236.64 8.83398 236.339C8.67773 236.034 8.58789 235.685 8.56445 235.29H9.94727C9.98242 235.567 10.0586 235.804 10.1758 235.999C10.2969 236.19 10.457 236.337 10.6562 236.438C10.8555 236.54 11.0859 236.591 11.3477 236.591C11.5859 236.591 11.791 236.55 11.9629 236.468C12.1348 236.382 12.2773 236.261 12.3906 236.104C12.5078 235.944 12.5938 235.757 12.6484 235.542C12.707 235.327 12.7363 235.089 12.7363 234.827C12.7363 234.577 12.7031 234.349 12.6367 234.142C12.5742 233.935 12.4785 233.755 12.3496 233.603C12.2246 233.45 12.0664 233.333 11.875 233.251C11.6836 233.165 11.4629 233.122 11.2129 233.122C10.877 233.122 10.6191 233.171 10.4395 233.269C10.2637 233.366 10.0996 233.487 9.94727 233.632ZM15.2266 231.159V230.708C15.2266 230.384 15.2969 230.089 15.4375 229.823C15.5781 229.558 15.7832 229.345 16.0527 229.185C16.3223 229.024 16.6465 228.944 17.0254 228.944C17.416 228.944 17.7441 229.024 18.0098 229.185C18.2793 229.345 18.4844 229.558 18.625 229.823C18.7656 230.089 18.8359 230.384 18.8359 230.708V231.159C18.8359 231.476 18.7656 231.767 18.625 232.032C18.4883 232.298 18.2852 232.511 18.0156 232.671C17.75 232.831 17.4238 232.911 17.0371 232.911C16.6543 232.911 16.3262 232.831 16.0527 232.671C15.7832 232.511 15.5781 232.298 15.4375 232.032C15.2969 231.767 15.2266 231.476 15.2266 231.159ZM16.2051 230.708V231.159C16.2051 231.315 16.2344 231.464 16.293 231.604C16.3555 231.745 16.4492 231.858 16.5742 231.944C16.6992 232.03 16.8535 232.073 17.0371 232.073C17.2246 232.073 17.377 232.03 17.4941 231.944C17.6152 231.858 17.7051 231.745 17.7637 231.604C17.8223 231.464 17.8516 231.315 17.8516 231.159V230.708C17.8516 230.548 17.8203 230.397 17.7578 230.257C17.6992 230.112 17.6094 229.997 17.4883 229.911C17.3672 229.825 17.2129 229.782 17.0254 229.782C16.8457 229.782 16.6934 229.825 16.5684 229.911C16.4473 229.997 16.3555 230.112 16.293 230.257C16.2344 230.397 16.2051 230.548 16.2051 230.708ZM19.3398 235.964V235.507C19.3398 235.187 19.4102 234.894 19.5508 234.628C19.6953 234.362 19.9023 234.149 20.1719 233.989C20.4414 233.829 20.7656 233.749 21.1445 233.749C21.5352 233.749 21.8633 233.829 22.1289 233.989C22.3984 234.149 22.6016 234.362 22.7383 234.628C22.8789 234.894 22.9492 235.187 22.9492 235.507V235.964C22.9492 236.284 22.8789 236.577 22.7383 236.843C22.6016 237.108 22.4004 237.321 22.1348 237.481C21.8691 237.642 21.5449 237.722 21.1621 237.722C20.7754 237.722 20.4453 237.642 20.1719 237.481C19.9023 237.321 19.6953 237.108 19.5508 236.843C19.4102 236.577 19.3398 236.284 19.3398 235.964ZM20.3242 235.507V235.964C20.3242 236.12 20.3555 236.269 20.418 236.409C20.4844 236.55 20.5801 236.665 20.7051 236.755C20.8301 236.841 20.9805 236.884 21.1562 236.884C21.3555 236.884 21.5156 236.841 21.6367 236.755C21.7578 236.665 21.8438 236.552 21.8945 236.415C21.9492 236.274 21.9766 236.124 21.9766 235.964V235.507C21.9766 235.347 21.9453 235.196 21.8828 235.056C21.8242 234.915 21.7324 234.802 21.6074 234.716C21.4863 234.63 21.332 234.587 21.1445 234.587C20.9609 234.587 20.8086 234.63 20.6875 234.716C20.5664 234.802 20.4746 234.915 20.4121 235.056C20.3535 235.196 20.3242 235.347 20.3242 235.507ZM21.4961 230.286L17.3301 236.954L16.6094 236.538L20.7754 229.87L21.4961 230.286Z" fill="#444444"/>
<path d="M278.363 231.557V232.682H272.645V231.715L275.422 228.686C275.727 228.342 275.967 228.046 276.143 227.796C276.318 227.546 276.441 227.321 276.512 227.122C276.586 226.919 276.623 226.721 276.623 226.53C276.623 226.26 276.572 226.024 276.471 225.821C276.373 225.614 276.229 225.452 276.037 225.335C275.846 225.214 275.613 225.153 275.34 225.153C275.023 225.153 274.758 225.221 274.543 225.358C274.328 225.495 274.166 225.684 274.057 225.926C273.947 226.165 273.893 226.438 273.893 226.747H272.48C272.48 226.251 272.594 225.797 272.82 225.387C273.047 224.973 273.375 224.645 273.805 224.403C274.234 224.157 274.752 224.034 275.357 224.034C275.928 224.034 276.412 224.13 276.811 224.321C277.209 224.512 277.512 224.784 277.719 225.135C277.93 225.487 278.035 225.903 278.035 226.383C278.035 226.649 277.992 226.913 277.906 227.174C277.82 227.436 277.697 227.698 277.537 227.96C277.381 228.217 277.195 228.477 276.98 228.739C276.766 228.997 276.529 229.258 276.271 229.524L274.426 231.557H278.363ZM280.947 228.715L279.822 228.44L280.285 224.151H284.885V225.346H281.457L281.223 227.438C281.355 227.36 281.539 227.284 281.773 227.21C282.008 227.131 282.275 227.092 282.576 227.092C282.979 227.092 283.338 227.159 283.654 227.292C283.975 227.421 284.246 227.61 284.469 227.86C284.691 228.106 284.861 228.407 284.979 228.762C285.096 229.114 285.154 229.51 285.154 229.952C285.154 230.346 285.096 230.715 284.979 231.059C284.865 231.403 284.693 231.706 284.463 231.967C284.232 232.229 283.941 232.434 283.59 232.583C283.242 232.727 282.83 232.799 282.354 232.799C281.998 232.799 281.656 232.749 281.328 232.647C281.004 232.542 280.713 232.387 280.455 232.184C280.197 231.977 279.99 231.723 279.834 231.422C279.678 231.118 279.588 230.768 279.564 230.374H280.947C280.982 230.651 281.059 230.887 281.176 231.083C281.297 231.274 281.457 231.421 281.656 231.522C281.855 231.624 282.086 231.674 282.348 231.674C282.586 231.674 282.791 231.633 282.963 231.551C283.135 231.465 283.277 231.344 283.391 231.188C283.508 231.028 283.594 230.84 283.648 230.626C283.707 230.411 283.736 230.172 283.736 229.911C283.736 229.661 283.703 229.432 283.637 229.225C283.574 229.018 283.479 228.839 283.35 228.686C283.225 228.534 283.066 228.417 282.875 228.335C282.684 228.249 282.463 228.206 282.213 228.206C281.877 228.206 281.619 228.255 281.439 228.352C281.264 228.45 281.1 228.571 280.947 228.715ZM286.227 226.243V225.792C286.227 225.467 286.297 225.172 286.438 224.907C286.578 224.641 286.783 224.428 287.053 224.268C287.322 224.108 287.646 224.028 288.025 224.028C288.416 224.028 288.744 224.108 289.01 224.268C289.279 224.428 289.484 224.641 289.625 224.907C289.766 225.172 289.836 225.467 289.836 225.792V226.243C289.836 226.559 289.766 226.85 289.625 227.116C289.488 227.381 289.285 227.594 289.016 227.755C288.75 227.915 288.424 227.995 288.037 227.995C287.654 227.995 287.326 227.915 287.053 227.755C286.783 227.594 286.578 227.381 286.438 227.116C286.297 226.85 286.227 226.559 286.227 226.243ZM287.205 225.792V226.243C287.205 226.399 287.234 226.547 287.293 226.688C287.355 226.829 287.449 226.942 287.574 227.028C287.699 227.114 287.854 227.157 288.037 227.157C288.225 227.157 288.377 227.114 288.494 227.028C288.615 226.942 288.705 226.829 288.764 226.688C288.822 226.547 288.852 226.399 288.852 226.243V225.792C288.852 225.631 288.82 225.481 288.758 225.34C288.699 225.196 288.609 225.081 288.488 224.995C288.367 224.909 288.213 224.866 288.025 224.866C287.846 224.866 287.693 224.909 287.568 224.995C287.447 225.081 287.355 225.196 287.293 225.34C287.234 225.481 287.205 225.631 287.205 225.792ZM290.34 231.047V230.59C290.34 230.27 290.41 229.977 290.551 229.712C290.695 229.446 290.902 229.233 291.172 229.073C291.441 228.913 291.766 228.833 292.145 228.833C292.535 228.833 292.863 228.913 293.129 229.073C293.398 229.233 293.602 229.446 293.738 229.712C293.879 229.977 293.949 230.27 293.949 230.59V231.047C293.949 231.368 293.879 231.661 293.738 231.926C293.602 232.192 293.4 232.405 293.135 232.565C292.869 232.725 292.545 232.805 292.162 232.805C291.775 232.805 291.445 232.725 291.172 232.565C290.902 232.405 290.695 232.192 290.551 231.926C290.41 231.661 290.34 231.368 290.34 231.047ZM291.324 230.59V231.047C291.324 231.204 291.355 231.352 291.418 231.493C291.484 231.633 291.58 231.749 291.705 231.839C291.83 231.924 291.98 231.967 292.156 231.967C292.355 231.967 292.516 231.924 292.637 231.839C292.758 231.749 292.844 231.635 292.895 231.499C292.949 231.358 292.977 231.208 292.977 231.047V230.59C292.977 230.43 292.945 230.28 292.883 230.139C292.824 229.999 292.732 229.885 292.607 229.799C292.486 229.714 292.332 229.671 292.145 229.671C291.961 229.671 291.809 229.714 291.688 229.799C291.566 229.885 291.475 229.999 291.412 230.139C291.354 230.28 291.324 230.43 291.324 230.59ZM292.496 225.37L288.33 232.038L287.609 231.622L291.775 224.954L292.496 225.37Z" fill="#444444"/>
<path d="M147.118 32.9162C92.0194 32.9162 47.3057 78.3021 47.3057 134.35H72.0765C72.0765 92.3766 105.647 58.3012 147.118 58.3012V32.9162Z" fill="#FA697D"/>
<path d="M146.393 223.268C98.1952 223.268 59.123 183.227 59.123 133.835" stroke="#B8E986" stroke-width="43"/>
<path d="M147.358 35.3383C200.522 35.3383 243.619 79.5042 243.619 133.986H223.924C223.924 90.6513 189.644 55.5219 147.358 55.5219V35.3383Z" fill="#4CE1B6"/>
<path d="M145.783 230.464C197.859 230.464 240.074 187.201 240.074 133.835H224.318C224.318 178.284 189.157 214.317 145.783 214.317V230.464Z" fill="#009DE8"/>
<path d="M290.245 28.0721V27.2648H246.74L207.232 71.801L207.815 72.3441L247.089 28.0721H290.245Z" fill="#DDDDDD"/>
<path d="M0.824595 30.4941V29.6868H44.3287L83.8367 74.223L83.2537 74.7661L43.9802 30.4941H0.824595Z" fill="#DDDDDD"/>
<path d="M0.824595 239.465V240.272H44.3287L83.8367 195.736L83.2537 195.193L43.9802 239.465H0.824595Z" fill="#DDDDDD"/>
<path d="M294.971 233.814V234.621H251.467L211.959 190.085L212.542 189.542L251.816 233.814H294.971Z" fill="#DDDDDD"/>
</svg>
