<svg width="477" height="174" viewBox="0 0 477 174" fill="none" xmlns="http://www.w3.org/2000/svg">
<g clip-path="url(#clip0_299_1497)">
<path d="M4.81226 101.818V109.682H3.8186V103.059L1.81519 103.789V102.893L4.65649 101.818H4.81226ZM12.6433 105.148V106.341C12.6433 106.982 12.586 107.522 12.4714 107.963C12.3569 108.403 12.1921 108.758 11.9773 109.026C11.7625 109.295 11.5028 109.49 11.1985 109.612C10.8977 109.73 10.5575 109.789 10.178 109.789C9.8772 109.789 9.59969 109.751 9.34546 109.676C9.09123 109.601 8.86206 109.481 8.65796 109.316C8.45744 109.148 8.28556 108.93 8.14233 108.661C7.9991 108.393 7.88989 108.067 7.8147 107.684C7.7395 107.3 7.7019 106.853 7.7019 106.341V105.148C7.7019 104.507 7.7592 103.97 7.87378 103.537C7.99194 103.104 8.15845 102.756 8.37329 102.495C8.58813 102.23 8.84595 102.04 9.14673 101.926C9.45109 101.811 9.79126 101.754 10.1672 101.754C10.4716 101.754 10.7509 101.791 11.0051 101.867C11.2629 101.938 11.4921 102.055 11.6926 102.216C11.8931 102.373 12.0632 102.585 12.2029 102.85C12.3461 103.111 12.4553 103.431 12.5305 103.811C12.6057 104.191 12.6433 104.636 12.6433 105.148ZM11.6443 106.502V104.982C11.6443 104.631 11.6228 104.323 11.5798 104.058C11.5404 103.789 11.4814 103.56 11.4026 103.371C11.3238 103.181 11.2236 103.027 11.1018 102.909C10.9836 102.79 10.8458 102.705 10.6882 102.651C10.5343 102.594 10.3606 102.565 10.1672 102.565C9.93091 102.565 9.72144 102.61 9.53882 102.699C9.3562 102.785 9.20223 102.923 9.0769 103.113C8.95516 103.303 8.86206 103.551 8.79761 103.859C8.73315 104.167 8.70093 104.541 8.70093 104.982V106.502C8.70093 106.853 8.72062 107.163 8.76001 107.431C8.80298 107.7 8.86564 107.932 8.948 108.129C9.03035 108.323 9.13062 108.482 9.24878 108.607C9.36694 108.733 9.50301 108.826 9.65698 108.887C9.81453 108.944 9.9882 108.973 10.178 108.973C10.4215 108.973 10.6345 108.926 10.8171 108.833C10.9998 108.74 11.1519 108.595 11.2737 108.398C11.399 108.197 11.4921 107.941 11.553 107.63C11.6139 107.315 11.6443 106.939 11.6443 106.502ZM18.8308 105.148V106.341C18.8308 106.982 18.7735 107.522 18.6589 107.963C18.5444 108.403 18.3796 108.758 18.1648 109.026C17.95 109.295 17.6903 109.49 17.386 109.612C17.0852 109.73 16.745 109.789 16.3655 109.789C16.0647 109.789 15.7872 109.751 15.533 109.676C15.2787 109.601 15.0496 109.481 14.8455 109.316C14.6449 109.148 14.4731 108.93 14.3298 108.661C14.1866 108.393 14.0774 108.067 14.0022 107.684C13.927 107.3 13.8894 106.853 13.8894 106.341V105.148C13.8894 104.507 13.9467 103.97 14.0613 103.537C14.1794 103.104 14.3459 102.756 14.5608 102.495C14.7756 102.23 15.0334 102.04 15.3342 101.926C15.6386 101.811 15.9788 101.754 16.3547 101.754C16.6591 101.754 16.9384 101.791 17.1926 101.867C17.4504 101.938 17.6796 102.055 17.8801 102.216C18.0806 102.373 18.2507 102.585 18.3904 102.85C18.5336 103.111 18.6428 103.431 18.718 103.811C18.7932 104.191 18.8308 104.636 18.8308 105.148ZM17.8318 106.502V104.982C17.8318 104.631 17.8103 104.323 17.7673 104.058C17.7279 103.789 17.6689 103.56 17.5901 103.371C17.5113 103.181 17.4111 103.027 17.2893 102.909C17.1711 102.79 17.0333 102.705 16.8757 102.651C16.7218 102.594 16.5481 102.565 16.3547 102.565C16.1184 102.565 15.9089 102.61 15.7263 102.699C15.5437 102.785 15.3897 102.923 15.2644 103.113C15.1427 103.303 15.0496 103.551 14.9851 103.859C14.9207 104.167 14.8884 104.541 14.8884 104.982V106.502C14.8884 106.853 14.9081 107.163 14.9475 107.431C14.9905 107.7 15.0531 107.932 15.1355 108.129C15.2179 108.323 15.3181 108.482 15.4363 108.607C15.5544 108.733 15.6905 108.826 15.8445 108.887C16.002 108.944 16.1757 108.973 16.3655 108.973C16.609 108.973 16.822 108.926 17.0046 108.833C17.1873 108.74 17.3394 108.595 17.4612 108.398C17.5865 108.197 17.6796 107.941 17.7405 107.63C17.8014 107.315 17.8318 106.939 17.8318 106.502ZM21.2156 101.432V109.682H20.2166V101.432H21.2156ZM24.7659 103.87L22.2307 106.582L20.8127 108.054L20.7322 106.996L21.7473 105.782L23.552 103.87H24.7659ZM23.8582 109.682L21.7849 106.91L22.3005 106.024L25.0291 109.682H23.8582Z" fill="#999999"/>
<path d="M6.45581 150.054V151.247C6.45581 151.888 6.39852 152.428 6.28394 152.869C6.16935 153.309 6.00464 153.664 5.78979 153.932C5.57495 154.201 5.31535 154.396 5.01099 154.518C4.71021 154.636 4.37004 154.695 3.99048 154.695C3.6897 154.695 3.41219 154.657 3.15796 154.582C2.90373 154.507 2.67456 154.387 2.47046 154.222C2.26994 154.054 2.09806 153.836 1.95483 153.567C1.8116 153.299 1.70239 152.973 1.6272 152.59C1.552 152.206 1.5144 151.759 1.5144 151.247V150.054C1.5144 149.413 1.5717 148.876 1.68628 148.443C1.80444 148.01 1.97095 147.663 2.18579 147.401C2.40063 147.136 2.65845 146.946 2.95923 146.832C3.26359 146.717 3.60376 146.66 3.97974 146.66C4.2841 146.66 4.5634 146.698 4.81763 146.773C5.07544 146.844 5.30461 146.961 5.50513 147.122C5.70565 147.279 5.87573 147.491 6.01538 147.756C6.15861 148.017 6.26782 148.337 6.34302 148.717C6.41821 149.097 6.45581 149.542 6.45581 150.054ZM5.45679 151.408V149.888C5.45679 149.537 5.4353 149.229 5.39233 148.964C5.35295 148.696 5.29386 148.466 5.21509 148.277C5.13631 148.087 5.03605 147.933 4.91431 147.815C4.79614 147.697 4.65828 147.611 4.50073 147.557C4.34676 147.5 4.1731 147.471 3.97974 147.471C3.74341 147.471 3.53394 147.516 3.35132 147.605C3.1687 147.691 3.01473 147.829 2.8894 148.019C2.76766 148.209 2.67456 148.457 2.61011 148.765C2.54565 149.073 2.51343 149.448 2.51343 149.888V151.408C2.51343 151.759 2.53312 152.069 2.57251 152.337C2.61548 152.606 2.67814 152.838 2.7605 153.035C2.84285 153.229 2.94312 153.388 3.06128 153.513C3.17944 153.639 3.31551 153.732 3.46948 153.793C3.62703 153.85 3.8007 153.879 3.99048 153.879C4.23397 153.879 4.44702 153.832 4.62964 153.739C4.81226 153.646 4.96444 153.501 5.08618 153.304C5.21151 153.103 5.30461 152.847 5.36548 152.536C5.42635 152.221 5.45679 151.845 5.45679 151.408Z" fill="#999999"/>
<path d="M57.318 167.852V162.315H58.3492V167.852C58.3492 168.368 58.2436 168.803 58.0323 169.157C57.8211 169.512 57.5293 169.782 57.1569 169.968C56.788 170.151 56.3637 170.242 55.8839 170.242C55.4041 170.242 54.978 170.16 54.6056 169.995C54.2332 169.831 53.9414 169.58 53.7301 169.243C53.5188 168.907 53.4132 168.482 53.4132 167.97H54.4498C54.4498 168.3 54.5107 168.57 54.6324 168.781C54.7542 168.993 54.9225 169.148 55.1373 169.249C55.3558 169.349 55.6046 169.399 55.8839 169.399C56.156 169.399 56.3995 169.342 56.6144 169.227C56.8328 169.109 57.0047 168.935 57.13 168.706C57.2553 168.473 57.318 168.189 57.318 167.852ZM63.382 169.141V166.15C63.382 165.92 63.3354 165.722 63.2423 165.553C63.1528 165.381 63.0167 165.249 62.8341 165.156C62.6515 165.063 62.4259 165.016 62.1573 165.016C61.9067 165.016 61.6865 165.059 61.4967 165.145C61.3105 165.231 61.1637 165.344 61.0563 165.484C60.9524 165.623 60.9005 165.774 60.9005 165.935H59.9069C59.9069 165.727 59.9606 165.521 60.068 165.317C60.1754 165.113 60.3294 164.929 60.5299 164.764C60.734 164.595 60.9775 164.463 61.2604 164.366C61.5468 164.266 61.8655 164.216 62.2164 164.216C62.639 164.216 63.0114 164.288 63.3336 164.431C63.6595 164.574 63.9137 164.791 64.0963 165.081C64.2825 165.367 64.3756 165.727 64.3756 166.16V168.867C64.3756 169.061 64.3917 169.267 64.424 169.485C64.4598 169.703 64.5117 169.891 64.5797 170.049V170.135H63.5431C63.493 170.02 63.4536 169.868 63.4249 169.678C63.3963 169.485 63.382 169.306 63.382 169.141ZM63.5538 166.611L63.5646 167.31H62.5602C62.2773 167.31 62.0249 167.333 61.8029 167.38C61.5809 167.422 61.3947 167.489 61.2443 167.578C61.0939 167.668 60.9793 167.781 60.9005 167.917C60.8217 168.049 60.7823 168.205 60.7823 168.384C60.7823 168.567 60.8235 168.733 60.9059 168.883C60.9882 169.034 61.1118 169.154 61.2765 169.243C61.4448 169.329 61.6507 169.372 61.8942 169.372C62.1985 169.372 62.4671 169.308 62.6998 169.179C62.9326 169.05 63.117 168.892 63.2531 168.706C63.3927 168.52 63.4679 168.339 63.4786 168.164L63.903 168.642C63.8779 168.792 63.8099 168.959 63.6989 169.141C63.5878 169.324 63.4392 169.499 63.2531 169.668C63.0704 169.832 62.852 169.97 62.5978 170.081C62.3471 170.189 62.0642 170.242 61.7491 170.242C61.3553 170.242 61.0097 170.165 60.7125 170.011C60.4189 169.857 60.1897 169.651 60.025 169.394C59.8639 169.132 59.7833 168.84 59.7833 168.518C59.7833 168.207 59.8442 167.933 59.9659 167.696C60.0877 167.457 60.2631 167.258 60.4923 167.1C60.7215 166.939 60.9972 166.817 61.3195 166.735C61.6417 166.653 62.0016 166.611 62.399 166.611H63.5538ZM66.9323 165.564V170.135H65.9386V164.323H66.8785L66.9323 165.564ZM66.6959 167.009L66.2823 166.993C66.2859 166.595 66.345 166.228 66.4596 165.892C66.5742 165.552 66.7353 165.256 66.943 165.005C67.1507 164.755 67.3977 164.561 67.6842 164.425C67.9742 164.286 68.2947 164.216 68.6456 164.216C68.9321 164.216 69.1899 164.255 69.4191 164.334C69.6482 164.409 69.8434 164.531 70.0045 164.699C70.1692 164.868 70.2946 165.086 70.3805 165.355C70.4664 165.62 70.5094 165.944 70.5094 166.327V170.135H69.5104V166.316C69.5104 166.012 69.4656 165.768 69.3761 165.586C69.2866 165.399 69.1559 165.265 68.984 165.183C68.8121 165.097 68.6009 165.054 68.3502 165.054C68.1031 165.054 67.8776 165.106 67.6735 165.21C67.4729 165.313 67.2993 165.457 67.1525 165.639C67.0092 165.822 66.8964 166.031 66.8141 166.268C66.7353 166.5 66.6959 166.748 66.6959 167.009Z" fill="#999999"/>
<path d="M154.226 163.007L151.637 170.135H150.579L153.56 162.315H154.242L154.226 163.007ZM156.396 170.135L153.801 163.007L153.785 162.315H154.467L157.459 170.135H156.396ZM156.261 167.24V168.089H151.868V167.24H156.261ZM159.35 165.441V172.369H158.351V164.323H159.264L159.35 165.441ZM163.265 167.181V167.294C163.265 167.716 163.215 168.108 163.115 168.47C163.014 168.828 162.868 169.139 162.674 169.404C162.485 169.669 162.25 169.875 161.971 170.022C161.691 170.169 161.371 170.242 161.009 170.242C160.64 170.242 160.315 170.181 160.032 170.06C159.749 169.938 159.509 169.761 159.312 169.528C159.115 169.295 158.958 169.016 158.839 168.69C158.725 168.364 158.646 167.997 158.603 167.589V166.987C158.646 166.558 158.727 166.173 158.845 165.833C158.963 165.492 159.119 165.202 159.312 164.963C159.509 164.719 159.747 164.535 160.026 164.409C160.306 164.28 160.628 164.216 160.993 164.216C161.358 164.216 161.682 164.288 161.965 164.431C162.248 164.57 162.486 164.771 162.68 165.032C162.873 165.294 163.018 165.607 163.115 165.972C163.215 166.334 163.265 166.737 163.265 167.181ZM162.266 167.294V167.181C162.266 166.891 162.236 166.619 162.175 166.364C162.114 166.107 162.019 165.881 161.89 165.688C161.765 165.491 161.604 165.337 161.407 165.226C161.21 165.111 160.975 165.054 160.703 165.054C160.452 165.054 160.234 165.097 160.048 165.183C159.865 165.269 159.709 165.385 159.581 165.532C159.452 165.675 159.346 165.84 159.264 166.026C159.185 166.209 159.126 166.398 159.086 166.595V167.986C159.158 168.237 159.258 168.473 159.387 168.695C159.516 168.914 159.688 169.091 159.903 169.227C160.118 169.36 160.388 169.426 160.714 169.426C160.982 169.426 161.213 169.37 161.407 169.259C161.604 169.145 161.765 168.989 161.89 168.792C162.019 168.595 162.114 168.37 162.175 168.115C162.236 167.858 162.266 167.584 162.266 167.294ZM165.526 165.236V170.135H164.533V164.323H165.5L165.526 165.236ZM167.342 164.291L167.336 165.215C167.254 165.197 167.175 165.186 167.1 165.183C167.028 165.176 166.946 165.172 166.853 165.172C166.624 165.172 166.422 165.208 166.246 165.279C166.071 165.351 165.922 165.451 165.8 165.58C165.679 165.709 165.582 165.863 165.51 166.042C165.442 166.218 165.397 166.411 165.376 166.622L165.097 166.783C165.097 166.432 165.131 166.103 165.199 165.795C165.27 165.487 165.38 165.215 165.526 164.979C165.673 164.739 165.859 164.553 166.085 164.42C166.314 164.284 166.586 164.216 166.901 164.216C166.973 164.216 167.055 164.225 167.148 164.243C167.242 164.257 167.306 164.273 167.342 164.291Z" fill="#999999"/>
<path d="M249.858 167.852V162.315H250.89V167.852C250.89 168.368 250.784 168.803 250.573 169.157C250.361 169.512 250.07 169.782 249.697 169.968C249.328 170.151 248.904 170.242 248.424 170.242C247.944 170.242 247.518 170.16 247.146 169.995C246.774 169.831 246.482 169.58 246.271 169.243C246.059 168.907 245.954 168.482 245.954 167.97H246.99C246.99 168.3 247.051 168.57 247.173 168.781C247.295 168.993 247.463 169.148 247.678 169.249C247.896 169.349 248.145 169.399 248.424 169.399C248.696 169.399 248.94 169.342 249.155 169.227C249.373 169.109 249.545 168.935 249.67 168.706C249.796 168.473 249.858 168.189 249.858 167.852ZM256.051 168.792V164.323H257.05V170.135H256.1L256.051 168.792ZM256.239 167.568L256.653 167.557C256.653 167.943 256.612 168.302 256.529 168.631C256.451 168.957 256.322 169.24 256.143 169.48C255.964 169.72 255.729 169.908 255.439 170.044C255.149 170.176 254.796 170.242 254.381 170.242C254.098 170.242 253.838 170.201 253.602 170.119C253.369 170.036 253.169 169.909 253 169.737C252.832 169.566 252.701 169.342 252.608 169.066C252.519 168.79 252.474 168.459 252.474 168.072V164.323H253.468V168.083C253.468 168.345 253.496 168.561 253.554 168.733C253.615 168.901 253.695 169.036 253.795 169.136C253.899 169.233 254.014 169.301 254.139 169.34C254.268 169.379 254.401 169.399 254.537 169.399C254.959 169.399 255.294 169.318 255.541 169.157C255.788 168.993 255.965 168.772 256.073 168.497C256.184 168.217 256.239 167.908 256.239 167.568ZM259.645 161.885V170.135H258.646V161.885H259.645Z" fill="#999999"/>
<path d="M343.943 168.158C343.943 167.976 343.914 167.815 343.857 167.675C343.803 167.532 343.706 167.403 343.567 167.288C343.43 167.174 343.241 167.064 342.997 166.961C342.757 166.857 342.453 166.751 342.084 166.644C341.697 166.529 341.348 166.402 341.037 166.262C340.725 166.119 340.458 165.956 340.236 165.774C340.014 165.591 339.844 165.381 339.726 165.145C339.608 164.909 339.549 164.638 339.549 164.334C339.549 164.03 339.612 163.749 339.737 163.491C339.862 163.233 340.041 163.009 340.274 162.819C340.51 162.626 340.791 162.476 341.117 162.368C341.443 162.261 341.807 162.207 342.208 162.207C342.795 162.207 343.293 162.32 343.701 162.546C344.113 162.768 344.426 163.059 344.641 163.421C344.856 163.779 344.963 164.162 344.963 164.57H343.932C343.932 164.277 343.869 164.017 343.744 163.792C343.618 163.562 343.429 163.383 343.174 163.255C342.92 163.122 342.598 163.056 342.208 163.056C341.839 163.056 341.534 163.111 341.295 163.222C341.055 163.333 340.876 163.484 340.757 163.673C340.643 163.863 340.586 164.08 340.586 164.323C340.586 164.488 340.62 164.638 340.688 164.775C340.759 164.907 340.868 165.031 341.015 165.145C341.166 165.26 341.355 165.365 341.585 165.462C341.817 165.559 342.095 165.652 342.417 165.741C342.861 165.867 343.244 166.006 343.567 166.16C343.889 166.314 344.154 166.488 344.361 166.681C344.573 166.871 344.728 167.088 344.829 167.331C344.933 167.571 344.984 167.843 344.984 168.148C344.984 168.466 344.92 168.755 344.791 169.012C344.662 169.27 344.478 169.49 344.238 169.673C343.998 169.856 343.71 169.997 343.373 170.097C343.04 170.194 342.668 170.242 342.256 170.242C341.894 170.242 341.538 170.192 341.187 170.092C340.84 169.992 340.523 169.841 340.236 169.641C339.954 169.44 339.726 169.193 339.554 168.9C339.386 168.602 339.302 168.259 339.302 167.868H340.333C340.333 168.137 340.385 168.368 340.489 168.561C340.593 168.751 340.734 168.908 340.913 169.034C341.096 169.159 341.302 169.252 341.531 169.313C341.764 169.37 342.005 169.399 342.256 169.399C342.618 169.399 342.924 169.349 343.174 169.249C343.425 169.148 343.615 169.005 343.744 168.819C343.876 168.633 343.943 168.413 343.943 168.158ZM348.567 170.242C348.162 170.242 347.795 170.174 347.466 170.038C347.14 169.899 346.859 169.703 346.623 169.453C346.39 169.202 346.211 168.905 346.086 168.561C345.96 168.217 345.898 167.841 345.898 167.433V167.208C345.898 166.735 345.967 166.314 346.107 165.945C346.247 165.573 346.436 165.258 346.676 165C346.916 164.742 347.188 164.547 347.493 164.415C347.797 164.282 348.112 164.216 348.438 164.216C348.853 164.216 349.212 164.288 349.512 164.431C349.817 164.574 350.066 164.775 350.259 165.032C350.452 165.287 350.595 165.587 350.689 165.935C350.782 166.278 350.828 166.654 350.828 167.063V167.508H346.488V166.697H349.835V166.622C349.82 166.364 349.767 166.114 349.673 165.87C349.584 165.627 349.441 165.426 349.244 165.269C349.047 165.111 348.778 165.032 348.438 165.032C348.213 165.032 348.005 165.081 347.815 165.177C347.625 165.27 347.462 165.41 347.326 165.596C347.19 165.783 347.085 166.01 347.009 166.278C346.934 166.547 346.897 166.857 346.897 167.208V167.433C346.897 167.709 346.934 167.969 347.009 168.212C347.088 168.452 347.201 168.663 347.348 168.846C347.498 169.028 347.679 169.172 347.89 169.276C348.105 169.379 348.349 169.431 348.621 169.431C348.972 169.431 349.269 169.36 349.512 169.216C349.756 169.073 349.969 168.882 350.151 168.642L350.753 169.12C350.628 169.31 350.468 169.49 350.275 169.662C350.082 169.834 349.844 169.974 349.561 170.081C349.281 170.189 348.95 170.242 348.567 170.242ZM352.982 165.441V172.369H351.983V164.323H352.896L352.982 165.441ZM356.898 167.181V167.294C356.898 167.716 356.847 168.108 356.747 168.47C356.647 168.828 356.5 169.139 356.307 169.404C356.117 169.669 355.882 169.875 355.603 170.022C355.324 170.169 355.003 170.242 354.642 170.242C354.273 170.242 353.947 170.181 353.664 170.06C353.381 169.938 353.141 169.761 352.944 169.528C352.748 169.295 352.59 169.016 352.472 168.69C352.357 168.364 352.278 167.997 352.235 167.589V166.987C352.278 166.558 352.359 166.173 352.477 165.833C352.595 165.492 352.751 165.202 352.944 164.963C353.141 164.719 353.38 164.535 353.659 164.409C353.938 164.28 354.26 164.216 354.626 164.216C354.991 164.216 355.315 164.288 355.598 164.431C355.881 164.57 356.119 164.771 356.312 165.032C356.505 165.294 356.651 165.607 356.747 165.972C356.847 166.334 356.898 166.737 356.898 167.181ZM355.899 167.294V167.181C355.899 166.891 355.868 166.619 355.807 166.364C355.746 166.107 355.651 165.881 355.523 165.688C355.397 165.491 355.236 165.337 355.039 165.226C354.842 165.111 354.608 165.054 354.336 165.054C354.085 165.054 353.866 165.097 353.68 165.183C353.498 165.269 353.342 165.385 353.213 165.532C353.084 165.675 352.978 165.84 352.896 166.026C352.817 166.209 352.758 166.398 352.719 166.595V167.986C352.79 168.237 352.891 168.473 353.02 168.695C353.149 168.914 353.32 169.091 353.535 169.227C353.75 169.36 354.02 169.426 354.346 169.426C354.615 169.426 354.846 169.37 355.039 169.259C355.236 169.145 355.397 168.989 355.523 168.792C355.651 168.595 355.746 168.37 355.807 168.115C355.868 167.858 355.899 167.584 355.899 167.294ZM360.598 164.323V165.086H357.456V164.323H360.598ZM358.52 162.911H359.513V168.695C359.513 168.892 359.544 169.041 359.605 169.141C359.665 169.241 359.744 169.308 359.841 169.34C359.938 169.372 360.041 169.388 360.152 169.388C360.235 169.388 360.321 169.381 360.41 169.367C360.503 169.349 360.573 169.335 360.62 169.324L360.625 170.135C360.546 170.16 360.443 170.183 360.314 170.205C360.188 170.23 360.036 170.242 359.857 170.242C359.614 170.242 359.39 170.194 359.186 170.097C358.982 170.001 358.819 169.839 358.697 169.614C358.579 169.385 358.52 169.077 358.52 168.69V162.911Z" fill="#999999"/>
<path d="M2.80347 56.1477L2.00854 55.9436L2.40063 52.0496H6.41284V52.968H3.2439L3.00757 55.095C3.1508 55.0126 3.33162 54.9356 3.55005 54.864C3.77205 54.7924 4.02629 54.7566 4.31274 54.7566C4.6744 54.7566 4.99845 54.8193 5.28491 54.9446C5.57137 55.0663 5.81486 55.2418 6.01538 55.4709C6.21948 55.7001 6.37524 55.9758 6.48267 56.2981C6.59009 56.6204 6.6438 56.9802 6.6438 57.3777C6.6438 57.7537 6.59188 58.0992 6.48804 58.4143C6.38778 58.7294 6.2356 59.0051 6.03149 59.2415C5.82739 59.4742 5.56958 59.655 5.25806 59.7839C4.95011 59.9128 4.58667 59.9773 4.16772 59.9773C3.85262 59.9773 3.55363 59.9343 3.27075 59.8484C2.99146 59.7589 2.7408 59.6246 2.5188 59.4456C2.30037 59.2629 2.12134 59.0374 1.98169 58.7688C1.84562 58.4967 1.75968 58.178 1.72388 57.8127H2.66919C2.71216 58.1064 2.7981 58.3534 2.927 58.554C3.05591 58.7545 3.2242 58.9067 3.43188 59.0105C3.64315 59.1108 3.88843 59.1609 4.16772 59.1609C4.40405 59.1609 4.61353 59.1197 4.79614 59.0374C4.97876 58.955 5.13273 58.8368 5.25806 58.6829C5.38338 58.5289 5.47827 58.3427 5.54272 58.1243C5.61076 57.9058 5.64478 57.6606 5.64478 57.3884C5.64478 57.1414 5.61076 56.9122 5.54272 56.7009C5.47469 56.4897 5.37264 56.3053 5.23657 56.1477C5.10409 55.9902 4.94116 55.8684 4.7478 55.7825C4.55444 55.693 4.33244 55.6482 4.08179 55.6482C3.74878 55.6482 3.49634 55.693 3.32446 55.7825C3.15617 55.872 2.9825 55.9937 2.80347 56.1477ZM12.6433 55.3367V56.5291C12.6433 57.17 12.586 57.7107 12.4714 58.1511C12.3569 58.5916 12.1921 58.946 11.9773 59.2146C11.7625 59.4832 11.5028 59.6783 11.1985 59.8C10.8977 59.9182 10.5575 59.9773 10.178 59.9773C9.8772 59.9773 9.59969 59.9397 9.34546 59.8645C9.09123 59.7893 8.86206 59.6694 8.65796 59.5046C8.45744 59.3363 8.28556 59.1179 8.14233 58.8494C7.9991 58.5808 7.88989 58.255 7.8147 57.8718C7.7395 57.4887 7.7019 57.0411 7.7019 56.5291V55.3367C7.7019 54.6957 7.7592 54.1586 7.87378 53.7253C7.99194 53.2921 8.15845 52.9447 8.37329 52.6833C8.58813 52.4184 8.84595 52.2286 9.14673 52.114C9.45109 51.9994 9.79126 51.9421 10.1672 51.9421C10.4716 51.9421 10.7509 51.9797 11.0051 52.0549C11.2629 52.1265 11.4921 52.2429 11.6926 52.4041C11.8931 52.5616 12.0632 52.7729 12.2029 53.0378C12.3461 53.2992 12.4553 53.6197 12.5305 53.9993C12.6057 54.3788 12.6433 54.8246 12.6433 55.3367ZM11.6443 56.6902V55.1702C11.6443 54.8193 11.6228 54.5113 11.5798 54.2463C11.5404 53.9778 11.4814 53.7486 11.4026 53.5588C11.3238 53.3691 11.2236 53.2151 11.1018 53.0969C10.9836 52.9788 10.8458 52.8928 10.6882 52.8391C10.5343 52.7818 10.3606 52.7532 10.1672 52.7532C9.93091 52.7532 9.72144 52.7979 9.53882 52.8875C9.3562 52.9734 9.20223 53.1112 9.0769 53.301C8.95516 53.4908 8.86206 53.7397 8.79761 54.0476C8.73315 54.3556 8.70093 54.7297 8.70093 55.1702V56.6902C8.70093 57.0411 8.72062 57.3508 8.76001 57.6194C8.80298 57.8879 8.86564 58.1207 8.948 58.3176C9.03035 58.511 9.13062 58.6703 9.24878 58.7957C9.36694 58.921 9.50301 59.0141 9.65698 59.075C9.81453 59.1322 9.9882 59.1609 10.178 59.1609C10.4215 59.1609 10.6345 59.1143 10.8171 59.0212C10.9998 58.9281 11.1519 58.7831 11.2737 58.5862C11.399 58.3857 11.4921 58.1296 11.553 57.8181C11.6139 57.503 11.6443 57.127 11.6443 56.6902ZM18.8308 55.3367V56.5291C18.8308 57.17 18.7735 57.7107 18.6589 58.1511C18.5444 58.5916 18.3796 58.946 18.1648 59.2146C17.95 59.4832 17.6903 59.6783 17.386 59.8C17.0852 59.9182 16.745 59.9773 16.3655 59.9773C16.0647 59.9773 15.7872 59.9397 15.533 59.8645C15.2787 59.7893 15.0496 59.6694 14.8455 59.5046C14.6449 59.3363 14.4731 59.1179 14.3298 58.8494C14.1866 58.5808 14.0774 58.255 14.0022 57.8718C13.927 57.4887 13.8894 57.0411 13.8894 56.5291V55.3367C13.8894 54.6957 13.9467 54.1586 14.0613 53.7253C14.1794 53.2921 14.3459 52.9447 14.5608 52.6833C14.7756 52.4184 15.0334 52.2286 15.3342 52.114C15.6386 51.9994 15.9788 51.9421 16.3547 51.9421C16.6591 51.9421 16.9384 51.9797 17.1926 52.0549C17.4504 52.1265 17.6796 52.2429 17.8801 52.4041C18.0806 52.5616 18.2507 52.7729 18.3904 53.0378C18.5336 53.2992 18.6428 53.6197 18.718 53.9993C18.7932 54.3788 18.8308 54.8246 18.8308 55.3367ZM17.8318 56.6902V55.1702C17.8318 54.8193 17.8103 54.5113 17.7673 54.2463C17.7279 53.9778 17.6689 53.7486 17.5901 53.5588C17.5113 53.3691 17.4111 53.2151 17.2893 53.0969C17.1711 52.9788 17.0333 52.8928 16.8757 52.8391C16.7218 52.7818 16.5481 52.7532 16.3547 52.7532C16.1184 52.7532 15.9089 52.7979 15.7263 52.8875C15.5437 52.9734 15.3897 53.1112 15.2644 53.301C15.1427 53.4908 15.0496 53.7397 14.9851 54.0476C14.9207 54.3556 14.8884 54.7297 14.8884 55.1702V56.6902C14.8884 57.0411 14.9081 57.3508 14.9475 57.6194C14.9905 57.8879 15.0531 58.1207 15.1355 58.3176C15.2179 58.511 15.3181 58.6703 15.4363 58.7957C15.5544 58.921 15.6905 59.0141 15.8445 59.075C16.002 59.1322 16.1757 59.1609 16.3655 59.1609C16.609 59.1609 16.822 59.1143 17.0046 59.0212C17.1873 58.9281 17.3394 58.7831 17.4612 58.5862C17.5865 58.3857 17.6796 58.1296 17.7405 57.8181C17.8014 57.503 17.8318 57.127 17.8318 56.6902ZM21.2156 51.6199V59.8699H20.2166V51.6199H21.2156ZM24.7659 54.0583L22.2307 56.7708L20.8127 58.2424L20.7322 57.1843L21.7473 55.9705L23.552 54.0583H24.7659ZM23.8582 59.8699L21.7849 57.0984L22.3005 56.2122L25.0291 59.8699H23.8582Z" fill="#999999"/>
<path d="M4.81226 4.00623V11.8695H3.8186V5.24695L1.81519 5.97742V5.08044L4.65649 4.00623H4.81226ZM8.31958 4.04919H9.32397L11.886 10.4247L14.4426 4.04919H15.4524L12.2727 11.8695H11.4885L8.31958 4.04919ZM7.99194 4.04919H8.87817L9.02319 8.81873V11.8695H7.99194V4.04919ZM14.8884 4.04919H15.7747V11.8695H14.7434V8.81873L14.8884 4.04919ZM18.5247 3.61951V11.8695H17.5256V3.61951H18.5247ZM21.1135 7.29871V11.8695H20.1199V6.05798H21.0598L21.1135 7.29871ZM20.8772 8.74353L20.4636 8.72742C20.4672 8.32996 20.5263 7.96293 20.6409 7.62634C20.7555 7.28617 20.9166 6.99076 21.1243 6.74011C21.3319 6.48946 21.579 6.2961 21.8655 6.16003C22.1555 6.02039 22.476 5.95056 22.8269 5.95056C23.1134 5.95056 23.3712 5.98995 23.6003 6.06873C23.8295 6.14392 24.0247 6.26567 24.1858 6.43396C24.3505 6.60225 24.4758 6.82068 24.5618 7.08923C24.6477 7.35421 24.6907 7.67826 24.6907 8.0614V11.8695H23.6917V8.05066C23.6917 7.7463 23.6469 7.50281 23.5574 7.32019C23.4679 7.13399 23.3372 6.99972 23.1653 6.91736C22.9934 6.83142 22.7821 6.78845 22.5315 6.78845C22.2844 6.78845 22.0588 6.84037 21.8547 6.94421C21.6542 7.04806 21.4806 7.19128 21.3337 7.3739C21.1905 7.55652 21.0777 7.76599 20.9954 8.00232C20.9166 8.23507 20.8772 8.48214 20.8772 8.74353Z" fill="#999999"/>
<path d="M42.9617 154.335H475.674" stroke="#EEEEEE" stroke-linecap="square"/>
<path d="M42.9567 7.66504H475.388" stroke="#EEEEEE" stroke-linecap="square"/>
<path d="M42.9617 56.5549H475.154" stroke="#EEEEEE" stroke-linecap="square"/>
<path d="M42.9617 105.445H475.393" stroke="#EEEEEE" stroke-linecap="square"/>
</g>
<rect x="54.1526" y="18.7357" width="9.21737" height="135.093" fill="#009DE8"/>
<rect x="181.147" y="75.9224" width="9.21737" height="78.7353" fill="#009DE8"/>
<path fill-rule="evenodd" clip-rule="evenodd" d="M308.142 27.8524H317.36V153.829H308.142V27.8524Z" fill="#009DE8"/>
<rect x="85.9014" y="36.9691" width="9.21737" height="116.86" fill="#009DE8"/>
<path fill-rule="evenodd" clip-rule="evenodd" d="M212.896 12.9341H222.114V153.829H212.896V12.9341Z" fill="#009DE8"/>
<path fill-rule="evenodd" clip-rule="evenodd" d="M339.891 58.5177H349.108V153.829H339.891V58.5177Z" fill="#009DE8"/>
<rect x="117.65" y="92.4982" width="9.21737" height="61.3307" fill="#009DE8"/>
<path fill-rule="evenodd" clip-rule="evenodd" d="M244.645 27.8524H253.862V153.829H244.645V27.8524Z" fill="#009DE8"/>
<rect x="371.64" y="31.9963" width="9.21737" height="121.833" fill="#009DE8"/>
<rect x="149.399" y="40.2842" width="9.21737" height="113.545" fill="#009DE8"/>
<rect x="276.394" y="40.2842" width="9.21737" height="113.545" fill="#009DE8"/>
<path fill-rule="evenodd" clip-rule="evenodd" d="M403.388 58.5177H412.606V153.829H403.388V58.5177Z" fill="#009DE8"/>
<defs>
<clipPath id="clip0_299_1497">
<rect width="475.206" height="173.218" fill="white" transform="translate(0.896729 0.502197)"/>
</clipPath>
</defs>
</svg>
