<svg width="150" height="18" viewBox="0 0 150 18" fill="none" xmlns="http://www.w3.org/2000/svg">
<path d="M5.38753 4.05066L7.60237 8.33386L9.82307 4.05066H11.1063L8.16487 9.39441V12.5819H7.03401V9.39441L4.09261 4.05066H5.38753ZM14.2821 12.6991C13.8407 12.6991 13.4403 12.6249 13.0809 12.4764C12.7254 12.3241 12.4188 12.1112 12.161 11.8378C11.9071 11.5643 11.7117 11.2401 11.575 10.8651C11.4383 10.4901 11.3699 10.08 11.3699 9.63464V9.38855C11.3699 8.87292 11.4461 8.41394 11.5985 8.0116C11.7508 7.60535 11.9578 7.2616 12.2196 6.98035C12.4813 6.6991 12.7782 6.48621 13.1102 6.34167C13.4422 6.19714 13.786 6.12488 14.1414 6.12488C14.5946 6.12488 14.9852 6.203 15.3133 6.35925C15.6453 6.5155 15.9168 6.73425 16.1278 7.0155C16.3387 7.29285 16.4949 7.62097 16.5965 7.99988C16.6981 8.37488 16.7489 8.78503 16.7489 9.23035V9.71667H12.0145V8.83191H15.6649V8.74988C15.6492 8.46863 15.5907 8.19519 15.4891 7.92957C15.3914 7.66394 15.2352 7.44519 15.0203 7.27332C14.8055 7.10144 14.5125 7.0155 14.1414 7.0155C13.8953 7.0155 13.6688 7.06824 13.4617 7.17371C13.2547 7.27527 13.077 7.42761 12.9285 7.63074C12.7801 7.83386 12.6649 8.08191 12.5828 8.37488C12.5008 8.66785 12.4598 9.00574 12.4598 9.38855V9.63464C12.4598 9.93542 12.5008 10.2186 12.5828 10.4843C12.6688 10.746 12.7918 10.9764 12.952 11.1757C13.116 11.3749 13.3133 11.5311 13.5438 11.6444C13.7782 11.7577 14.0438 11.8143 14.3407 11.8143C14.7235 11.8143 15.0477 11.7362 15.3133 11.58C15.5789 11.4237 15.8114 11.2147 16.0106 10.953L16.6668 11.4745C16.5301 11.6815 16.3563 11.8788 16.1453 12.0663C15.9344 12.2538 15.6746 12.4061 15.366 12.5233C15.0614 12.6405 14.7 12.6991 14.2821 12.6991ZM21.7528 11.4979V8.23425C21.7528 7.98425 21.702 7.76746 21.6004 7.58386C21.5028 7.39636 21.3543 7.25183 21.1551 7.15027C20.9559 7.04871 20.7098 6.99792 20.4168 6.99792C20.1434 6.99792 19.9032 7.0448 19.6961 7.13855C19.493 7.2323 19.3328 7.35535 19.2157 7.50769C19.1024 7.66003 19.0457 7.8241 19.0457 7.99988H17.9617C17.9617 7.77332 18.0203 7.54871 18.1375 7.32605C18.2547 7.10339 18.4227 6.90222 18.6414 6.72253C18.8641 6.53894 19.1297 6.39441 19.4383 6.28894C19.7508 6.17957 20.0985 6.12488 20.4813 6.12488C20.9422 6.12488 21.3485 6.203 21.7 6.35925C22.0555 6.5155 22.3328 6.75183 22.5321 7.06824C22.7352 7.38074 22.8367 7.77332 22.8367 8.24597V11.1991C22.8367 11.41 22.8543 11.6346 22.8895 11.8729C22.9285 12.1112 22.9852 12.3163 23.0594 12.4882V12.5819H21.9285C21.8739 12.4569 21.8309 12.2909 21.7996 12.0839C21.7684 11.8729 21.7528 11.6776 21.7528 11.4979ZM21.9403 8.73816L21.952 9.49988H20.8563C20.5477 9.49988 20.2723 9.52527 20.0301 9.57605C19.7879 9.62292 19.5848 9.69519 19.4207 9.79285C19.2567 9.8905 19.1317 10.0135 19.0457 10.162C18.9598 10.3065 18.9168 10.4764 18.9168 10.6718C18.9168 10.871 18.9617 11.0526 19.0516 11.2167C19.1414 11.3807 19.2762 11.5116 19.4559 11.6093C19.6395 11.703 19.8641 11.7499 20.1297 11.7499C20.4617 11.7499 20.7547 11.6796 21.0086 11.5389C21.2625 11.3983 21.4637 11.2264 21.6121 11.0233C21.7645 10.8202 21.8465 10.6229 21.8582 10.4315L22.3211 10.953C22.2938 11.1171 22.2196 11.2987 22.0985 11.4979C21.9774 11.6971 21.8153 11.8885 21.6121 12.0721C21.4129 12.2518 21.1746 12.4022 20.8973 12.5233C20.6239 12.6405 20.3153 12.6991 19.9715 12.6991C19.5418 12.6991 19.1649 12.6151 18.8407 12.4471C18.5203 12.2792 18.2703 12.0546 18.0907 11.7733C17.9149 11.4882 17.827 11.1698 17.827 10.8182C17.827 10.4784 17.8934 10.1796 18.0262 9.92175C18.159 9.66003 18.3504 9.44324 18.6004 9.27136C18.8504 9.09558 19.1512 8.96277 19.5028 8.87292C19.8543 8.78308 20.2469 8.73816 20.6805 8.73816H21.9403ZM25.6258 7.23816V12.5819H24.5418V6.24207H25.5965L25.6258 7.23816ZM27.6063 6.20691L27.6004 7.21472C27.5106 7.19519 27.4246 7.18347 27.3426 7.17957C27.2645 7.17175 27.1746 7.16785 27.0731 7.16785C26.8231 7.16785 26.6024 7.20691 26.411 7.28503C26.2196 7.36316 26.0574 7.47253 25.9246 7.61316C25.7918 7.75378 25.6864 7.92175 25.6082 8.11707C25.534 8.30847 25.4852 8.51941 25.4617 8.74988L25.1571 8.92566C25.1571 8.54285 25.1942 8.18347 25.2684 7.84753C25.3465 7.5116 25.4657 7.21472 25.6258 6.95691C25.786 6.69519 25.9891 6.49207 26.2352 6.34753C26.4852 6.1991 26.7821 6.12488 27.1258 6.12488C27.2039 6.12488 27.2938 6.13464 27.3953 6.15417C27.4969 6.1698 27.5672 6.18738 27.6063 6.20691ZM29.786 3.58191V12.5819H28.6961V3.58191H29.786ZM33.3074 11.9257L35.0711 6.24207H36.2313L33.6883 13.5604C33.6297 13.7167 33.5516 13.8846 33.4539 14.0643C33.3602 14.2479 33.2391 14.4218 33.0907 14.5858C32.9422 14.7499 32.7625 14.8827 32.5516 14.9843C32.3446 15.0897 32.0965 15.1425 31.8074 15.1425C31.7215 15.1425 31.6121 15.1307 31.4793 15.1073C31.3465 15.0839 31.2528 15.0643 31.1981 15.0487L31.1922 14.1698C31.2235 14.1737 31.2723 14.1776 31.3387 14.1815C31.409 14.1893 31.4578 14.1932 31.4852 14.1932C31.7313 14.1932 31.9403 14.16 32.1121 14.0936C32.284 14.0311 32.4285 13.9237 32.5457 13.7714C32.6668 13.6229 32.7703 13.4178 32.8563 13.1561L33.3074 11.9257ZM32.0125 6.24207L33.659 11.1639L33.9403 12.3065L33.161 12.705L30.8289 6.24207H32.0125Z" fill="#999999"/>
<path d="M107.335 4.05066H108.43L111.225 11.0057L114.014 4.05066H115.116L111.647 12.5819H110.792L107.335 4.05066ZM106.977 4.05066H107.944L108.102 9.25378V12.5819H106.977V4.05066ZM114.501 4.05066H115.468V12.5819H114.343V9.25378L114.501 4.05066ZM117.003 9.4823V9.34753C117.003 8.8905 117.069 8.46667 117.202 8.07605C117.335 7.68152 117.526 7.33972 117.776 7.05066C118.026 6.75769 118.329 6.53113 118.684 6.37097C119.04 6.20691 119.438 6.12488 119.88 6.12488C120.325 6.12488 120.725 6.20691 121.081 6.37097C121.44 6.53113 121.745 6.75769 121.995 7.05066C122.249 7.33972 122.442 7.68152 122.575 8.07605C122.708 8.46667 122.774 8.8905 122.774 9.34753V9.4823C122.774 9.93933 122.708 10.3632 122.575 10.7538C122.442 11.1444 122.249 11.4862 121.995 11.7792C121.745 12.0682 121.442 12.2948 121.087 12.4589C120.735 12.619 120.337 12.6991 119.891 12.6991C119.446 12.6991 119.046 12.619 118.69 12.4589C118.335 12.2948 118.03 12.0682 117.776 11.7792C117.526 11.4862 117.335 11.1444 117.202 10.7538C117.069 10.3632 117.003 9.93933 117.003 9.4823ZM118.087 9.34753V9.4823C118.087 9.79871 118.124 10.0975 118.198 10.3788C118.272 10.6561 118.384 10.9022 118.532 11.1171C118.684 11.3319 118.874 11.5018 119.1 11.6268C119.327 11.7479 119.591 11.8085 119.891 11.8085C120.188 11.8085 120.448 11.7479 120.671 11.6268C120.897 11.5018 121.085 11.3319 121.233 11.1171C121.382 10.9022 121.493 10.6561 121.567 10.3788C121.645 10.0975 121.684 9.79871 121.684 9.4823V9.34753C121.684 9.03503 121.645 8.74011 121.567 8.46277C121.493 8.18152 121.38 7.93347 121.227 7.71863C121.079 7.49988 120.891 7.328 120.665 7.203C120.442 7.078 120.18 7.0155 119.88 7.0155C119.583 7.0155 119.321 7.078 119.094 7.203C118.872 7.328 118.684 7.49988 118.532 7.71863C118.384 7.93347 118.272 8.18152 118.198 8.46277C118.124 8.74011 118.087 9.03503 118.087 9.34753ZM125.218 7.59558V12.5819H124.134V6.24207H125.159L125.218 7.59558ZM124.96 9.17175L124.509 9.15417C124.512 8.72058 124.577 8.32019 124.702 7.953C124.827 7.58191 125.003 7.25964 125.229 6.98621C125.456 6.71277 125.725 6.50183 126.038 6.35339C126.354 6.20105 126.704 6.12488 127.087 6.12488C127.399 6.12488 127.68 6.16785 127.93 6.25378C128.18 6.33582 128.393 6.46863 128.569 6.65222C128.749 6.83582 128.885 7.0741 128.979 7.36707C129.073 7.65613 129.12 8.00964 129.12 8.42761V12.5819H128.03V8.41589C128.03 8.08386 127.981 7.81824 127.884 7.61902C127.786 7.41589 127.643 7.26941 127.456 7.17957C127.268 7.08582 127.038 7.03894 126.764 7.03894C126.495 7.03894 126.249 7.09558 126.026 7.20886C125.807 7.32214 125.618 7.47839 125.458 7.67761C125.302 7.87683 125.178 8.10535 125.089 8.36316C125.003 8.61707 124.96 8.8866 124.96 9.17175ZM133.421 6.24207V7.0741H129.993V6.24207H133.421ZM131.153 4.70105H132.237V11.0116C132.237 11.2264 132.27 11.3885 132.337 11.4979C132.403 11.6073 132.489 11.6796 132.594 11.7147C132.7 11.7499 132.813 11.7675 132.934 11.7675C133.024 11.7675 133.118 11.7596 133.216 11.744C133.317 11.7245 133.393 11.7089 133.444 11.6971L133.45 12.5819C133.364 12.6093 133.251 12.6346 133.11 12.6581C132.973 12.6854 132.807 12.6991 132.612 12.6991C132.346 12.6991 132.102 12.6464 131.88 12.5409C131.657 12.4354 131.479 12.2596 131.346 12.0135C131.218 11.7635 131.153 11.4276 131.153 11.0057V4.70105ZM135.776 3.58191V12.5819H134.692V3.58191H135.776ZM135.518 9.17175L135.067 9.15417C135.071 8.72058 135.135 8.32019 135.26 7.953C135.385 7.58191 135.561 7.25964 135.788 6.98621C136.014 6.71277 136.284 6.50183 136.596 6.35339C136.913 6.20105 137.262 6.12488 137.645 6.12488C137.958 6.12488 138.239 6.16785 138.489 6.25378C138.739 6.33582 138.952 6.46863 139.128 6.65222C139.307 6.83582 139.444 7.0741 139.538 7.36707C139.632 7.65613 139.678 8.00964 139.678 8.42761V12.5819H138.589V8.41589C138.589 8.08386 138.54 7.81824 138.442 7.61902C138.344 7.41589 138.202 7.26941 138.014 7.17957C137.827 7.08582 137.596 7.03894 137.323 7.03894C137.053 7.03894 136.807 7.09558 136.585 7.20886C136.366 7.32214 136.177 7.47839 136.016 7.67761C135.86 7.87683 135.737 8.10535 135.647 8.36316C135.561 8.61707 135.518 8.8866 135.518 9.17175ZM142.479 3.58191V12.5819H141.389V3.58191H142.479ZM146.001 11.9257L147.764 6.24207H148.925L146.382 13.5604C146.323 13.7167 146.245 13.8846 146.147 14.0643C146.053 14.2479 145.932 14.4218 145.784 14.5858C145.635 14.7499 145.456 14.8827 145.245 14.9843C145.038 15.0897 144.79 15.1425 144.501 15.1425C144.415 15.1425 144.305 15.1307 144.173 15.1073C144.04 15.0839 143.946 15.0643 143.891 15.0487L143.885 14.1698C143.917 14.1737 143.966 14.1776 144.032 14.1815C144.102 14.1893 144.151 14.1932 144.178 14.1932C144.425 14.1932 144.634 14.16 144.805 14.0936C144.977 14.0311 145.122 13.9237 145.239 13.7714C145.36 13.6229 145.464 13.4178 145.55 13.1561L146.001 11.9257ZM144.706 6.24207L146.352 11.1639L146.634 12.3065L145.854 12.705L143.522 6.24207H144.706Z" fill="#999999"/>
<rect x="45.875" width="50.6207" height="17.4009" rx="8.70043" fill="#F2F4F7"/>
<rect x="45.875" width="25.3103" height="17.4009" rx="8.70043" fill="#009DE8"/>
</svg>
