<svg width="12" height="10" viewBox="0 0 12 10" fill="none" xmlns="http://www.w3.org/2000/svg">
<path d="M12 1.95286C12 2.17733 11.9277 2.36813 11.7832 2.52525L6.17806 8.61953L5.12516 9.76431C4.98065 9.92144 4.80516 10 4.59871 10C4.39226 10 4.21677 9.92144 4.07226 9.76431L3.01935 8.61953L0.216774 5.57239C0.0722581 5.41526 0 5.22447 0 5C0 4.77553 0.0722581 4.58474 0.216774 4.42761L1.26968 3.28283C1.41419 3.1257 1.58968 3.04714 1.79613 3.04714C2.00258 3.04714 2.17806 3.1257 2.32258 3.28283L4.59871 5.76599L9.67742 0.23569C9.82194 0.0785634 9.99742 0 10.2039 0C10.4103 0 10.5858 0.0785634 10.7303 0.23569L11.7832 1.38047C11.9277 1.5376 12 1.7284 12 1.95286Z" fill="white"/>
</svg>