<svg width="24" height="24" viewBox="0 0 24 24" fill="none" xmlns="http://www.w3.org/2000/svg">
<path fill-rule="evenodd" clip-rule="evenodd" d="M4 6C4 5.44772 4.44772 5 5 5H19C19.5523 5 20 5.44772 20 6V7C20 7.55228 19.5523 8 19 8H5C4.44772 8 4 7.55228 4 7V6ZM4 12C4 11.4477 4.44772 11 5 11H19C19.5523 11 20 11.4477 20 12V13C20 13.5523 19.5523 14 19 14H5C4.44772 14 4 13.5523 4 13V12ZM5 17C4.44772 17 4 17.4477 4 18V19C4 19.5523 4.44772 20 5 20H19C19.5523 20 20 19.5523 20 19V18C20 17.4477 19.5523 17 19 17H5Z" fill="white"/>
</svg>