<svg width="78" height="78" viewBox="0 0 78 78" fill="none" xmlns="http://www.w3.org/2000/svg">
<path d="M39 0C17.4622 0 0 17.4622 0 39C0 60.5378 17.4622 78 39 78C60.5378 78 78 60.5378 78 39C78 17.4622 60.5378 0 39 0ZM57.0668 28.2116L38.3857 56.7645C38.3809 56.7694 38.3711 56.7743 38.3711 56.7791C38.2736 56.9254 38.22 57.0911 38.0981 57.2276C37.9275 57.4129 37.7081 57.5104 37.5131 57.6518C37.4644 57.6859 37.4156 57.7249 37.362 57.759C37.0597 57.9491 36.7478 58.0759 36.4065 58.1588C36.2944 58.188 36.192 58.2173 36.075 58.2368C35.8035 58.2741 35.5283 58.2774 35.256 58.2465C35.0636 58.2343 34.8727 58.205 34.6856 58.1588C34.4926 58.1005 34.305 58.0255 34.125 57.9345C33.969 57.8614 33.8033 57.8419 33.657 57.7492C33.5498 57.681 33.4913 57.5737 33.3986 57.4909C33.3596 57.4567 33.3109 57.447 33.2719 57.4129L22.3958 47.3557C21.7511 46.7367 21.375 45.8895 21.3483 44.9961C21.3216 44.1028 21.6465 43.2346 22.2531 42.5782C22.8597 41.9218 23.6995 41.5296 24.5922 41.4859C25.4849 41.4421 26.3591 41.7503 27.027 42.3442L34.9001 49.6275L51.3533 24.4774C51.8484 23.7197 52.6243 23.1898 53.5102 23.0042C54.3961 22.8186 55.3195 22.9926 56.0771 23.4877C56.8348 23.9829 57.3647 24.7588 57.5503 25.6447C57.7359 26.5306 57.5619 27.454 57.0668 28.2116Z" fill="#01956A"/>
</svg>