<svg width="20" height="19" viewBox="0 0 20 19" fill="none" xmlns="http://www.w3.org/2000/svg">
<path d="M14.9736 13.127L10.8916 9.50391L14.9736 5.87109C15.0713 5.77995 15.1234 5.66602 15.1299 5.5293C15.1429 5.39258 15.1038 5.27214 15.0127 5.16797C14.9215 5.0638 14.8044 5.00846 14.6611 5.00195C14.5244 4.99544 14.4072 5.03776 14.3096 5.12891L10.1396 8.83008L5.96973 5.12891C5.86556 5.03776 5.74512 4.99544 5.6084 5.00195C5.47168 5.00846 5.35775 5.0638 5.2666 5.16797C5.17546 5.27214 5.13314 5.39258 5.13965 5.5293C5.14616 5.66602 5.2015 5.77995 5.30566 5.87109L9.3877 9.50391L5.30566 13.127C5.2015 13.2181 5.14616 13.332 5.13965 13.4688C5.13314 13.6055 5.17546 13.7259 5.2666 13.8301C5.31217 13.8887 5.36751 13.931 5.43262 13.957C5.49772 13.9831 5.56608 13.9961 5.6377 13.9961C5.69629 13.9961 5.75488 13.9863 5.81348 13.9668C5.87207 13.9473 5.92415 13.9147 5.96973 13.8691L10.1396 10.168L14.3096 13.8691C14.3551 13.9147 14.4072 13.9473 14.4658 13.9668C14.5244 13.9863 14.583 13.9961 14.6416 13.9961C14.7067 13.9961 14.7718 13.9831 14.8369 13.957C14.902 13.931 14.9606 13.8887 15.0127 13.8301C15.1038 13.7259 15.1429 13.6055 15.1299 13.4688C15.1234 13.332 15.0713 13.2181 14.9736 13.127ZM10.1396 18.9961C9.50163 18.9961 8.87663 18.9342 8.26465 18.8105C7.65918 18.6934 7.06999 18.5176 6.49707 18.2832C5.93066 18.0488 5.38704 17.7591 4.86621 17.4141C4.35189 17.0625 3.87012 16.6621 3.4209 16.2129C2.97168 15.7702 2.57454 15.2884 2.22949 14.7676C1.88444 14.2467 1.59147 13.7031 1.35059 13.1367C1.11621 12.5703 0.937174 11.9811 0.813477 11.3691C0.696289 10.7572 0.637695 10.1354 0.637695 9.50391C0.637695 8.86589 0.696289 8.24414 0.813477 7.63867C0.937174 7.02669 1.11621 6.4375 1.35059 5.87109C1.59147 5.29818 1.88444 4.75456 2.22949 4.24023C2.57454 3.7194 2.97168 3.23438 3.4209 2.78516C3.87012 2.33594 4.35189 1.9388 4.86621 1.59375C5.38704 1.2487 5.93066 0.958984 6.49707 0.724609C7.06999 0.483724 7.65918 0.304688 8.26465 0.1875C8.87663 0.0638021 9.50163 0.00195312 10.1396 0.00195312C10.7712 0.00195312 11.3929 0.0638021 12.0049 0.1875C12.6169 0.304688 13.2061 0.483724 13.7725 0.724609C14.3454 0.958984 14.889 1.2487 15.4033 1.59375C15.9242 1.9388 16.4092 2.33594 16.8584 2.78516C17.3076 3.23438 17.7048 3.7194 18.0498 4.24023C18.3949 4.75456 18.6846 5.29818 18.9189 5.87109C19.1533 6.4375 19.3324 7.02669 19.4561 7.63867C19.5798 8.24414 19.6416 8.86589 19.6416 9.50391C19.6416 10.1354 19.5798 10.7572 19.4561 11.3691C19.3324 11.9811 19.1533 12.5703 18.9189 13.1367C18.6846 13.7031 18.3949 14.2467 18.0498 14.7676C17.7048 15.2884 17.3076 15.7702 16.8584 16.2129C16.4092 16.6621 15.9242 17.0625 15.4033 17.4141C14.889 17.7591 14.3454 18.0488 13.7725 18.2832C13.2061 18.5176 12.6169 18.6934 12.0049 18.8105C11.3929 18.9342 10.7712 18.9961 10.1396 18.9961ZM10.1396 0.998047C8.96777 0.998047 7.86426 1.22266 6.8291 1.67188C5.80046 2.11458 4.89876 2.72331 4.12402 3.49805C3.35579 4.26628 2.74707 5.16797 2.29785 6.20312C1.85514 7.23177 1.63379 8.33203 1.63379 9.50391C1.63379 10.6758 1.85514 11.7793 2.29785 12.8145C2.74707 13.8431 3.35579 14.7415 4.12402 15.5098C4.89876 16.278 5.80046 16.8867 6.8291 17.3359C7.86426 17.7786 8.96777 18 10.1396 18C11.3115 18 12.4118 17.7786 13.4404 17.3359C14.4756 16.8867 15.3773 16.278 16.1455 15.5098C16.9137 14.7415 17.5192 13.8431 17.9619 12.8145C18.4111 11.7793 18.6357 10.6758 18.6357 9.50391C18.6357 8.33203 18.4111 7.23177 17.9619 6.20312C17.5192 5.16797 16.9137 4.26628 16.1455 3.49805C15.3773 2.72331 14.4756 2.11458 13.4404 1.67188C12.4118 1.22266 11.3115 0.998047 10.1396 0.998047Z" fill="#6F6F6F"/>
</svg>
